<?xml version="1.0" encoding="UTF-8" standalone="no"?>
<svg
   xmlns:dc="http://purl.org/dc/elements/1.1/"
   xmlns:cc="http://creativecommons.org/ns#"
   xmlns:rdf="http://www.w3.org/1999/02/22-rdf-syntax-ns#"
   xmlns:svg="http://www.w3.org/2000/svg"
   xmlns="http://www.w3.org/2000/svg"
   xmlns:sodipodi="http://sodipodi.sourceforge.net/DTD/sodipodi-0.dtd"
   xmlns:inkscape="http://www.inkscape.org/namespaces/inkscape"
   width="100mm"
   height="100mm"
   viewBox="0 0 100 100"
   version="1.1"
   id="svg8"
   inkscape:version="1.0.1 (3bc2e813f5, 2020-09-07)"
   sodipodi:docname="cowmail.svg">
  <defs
     id="defs2" />
  <sodipodi:namedview
     id="base"
     pagecolor="#ffffff"
     bordercolor="#666666"
     borderopacity="1.0"
     inkscape:pageopacity="0.0"
     inkscape:pageshadow="2"
     inkscape:zoom="8"
     inkscape:cx="265.20429"
     inkscape:cy="155.68316"
     inkscape:document-units="mm"
     inkscape:current-layer="layer1"
     inkscape:document-rotation="0"
     showgrid="false"
     inkscape:snap-global="false"
     inkscape:window-width="1920"
     inkscape:window-height="1016"
     inkscape:window-x="0"
     inkscape:window-y="27"
     inkscape:window-maximized="1" />
  <metadata
     id="metadata5">
    <rdf:RDF>
      <cc:Work
         rdf:about="">
        <dc:format>image/svg+xml</dc:format>
        <dc:type
           rdf:resource="http://purl.org/dc/dcmitype/StillImage" />
        <dc:title />
      </cc:Work>
    </rdf:RDF>
  </metadata>
  <g
     inkscape:label="Layer 1"
     inkscape:groupmode="layer"
     id="layer1">
    <path
       style="fill:none;stroke:#000000;stroke-width:0.103918px;stroke-linecap:butt;stroke-linejoin:miter;stroke-opacity:1"
       d="m 47.685057,40.730215 c 0.09152,1.89213 0.453757,3.74565 0.662163,5.6213 0.01578,0.14203 0.11795,0.33097 0.150176,0.44811 0.02625,0.0954 -0.0099,0.19843 0,0.29691 0.02399,0.23994 0.111348,0.47015 0.148454,0.70516 0.132398,0.83851 -0.0611,1.74888 0.07423,2.56083 0.06135,0.36811 0.263872,0.72233 0.336188,1.08391 0.02816,0.14079 0.649123,1.24774 0.74044,1.40754 0.399383,0.69892 0.605138,1.52895 1.151445,2.15381 0.523448,0.5987 1.205127,1.06385 1.642121,1.71774 0.618673,0.92576 1.126457,1.93254 1.697092,2.8991 0.183278,0.31044 0.312677,0.64882 0.523086,0.92937 0.04598,0.0613 0.08587,0.24421 0.109592,0.29166 0.447104,0.8942 0.419084,1.50358 0.634128,2.45208 0.05871,0.25897 0.0089,0.55731 0.0749,0.81526 0.204228,0.79761 1.000703,1.51732 1.586278,2.10289"
       id="path30" />
    <path
       style="fill:none;stroke:#000000;stroke-width:0.103918px;stroke-linecap:butt;stroke-linejoin:miter;stroke-opacity:1"
       d="m 53.503476,27.712224 c 0.782014,0.319246 1.882935,0.05185 2.651446,0.203486 0.754544,0.148881 1.691714,0.133137 2.450807,-0.03711 0.200705,-0.04502 0.481022,-0.03958 0.676452,-0.112023 0.03719,-0.01378 0.278169,-0.128031 0.308969,-0.07248 0.03617,0.06525 0.04192,0.143211 0.06288,0.214817"
       id="path40" />
    <path
       style="fill:none;stroke:#000000;stroke-width:0.103918px;stroke-linecap:butt;stroke-linejoin:miter;stroke-opacity:1"
       d="m 44.797222,35.171535 c 0.850149,-0.05212 1.489401,-0.554837 2.18111,-0.969864 0.143472,-0.08608 0.366174,-0.143491 0.482476,-0.259795 0.0908,-0.0908 0.138927,-0.268283 0.257357,-0.329833 0.345016,-0.179307 0.858369,-0.610696 1.035265,-0.964487 0.133499,-0.266999 0.257752,-0.574439 0.34014,-0.861259 0.05244,-0.182587 -0.04614,-0.406029 0,-0.590575 0.19521,-0.780817 0.812913,-1.500149 1.521194,-1.854289 0.793667,-0.396835 1.581624,-0.841749 2.215379,-1.475502 0.0604,-0.0604 0.280184,-0.166546 0.194762,-0.166546 -0.03798,0 1.464943,-0.02487 0.478571,0.01284"
       id="path42" />
    <path
       style="fill:none;stroke:#000000;stroke-width:0.103918px;stroke-linecap:butt;stroke-linejoin:miter;stroke-opacity:1"
       d="m 50.784872,33.572771 c -0.21405,0.226804 -0.438226,0.444464 -0.642156,0.680415 -0.21242,0.24577 -0.359391,0.570831 -0.561734,0.823564 -0.235264,0.29386 -0.534072,0.560195 -0.753687,0.867012 -0.04554,0.06362 -0.03541,0.154748 -0.07423,0.222683 -0.322149,0.563757 -0.681451,1.144772 -0.870829,1.776033 -0.03974,0.132478 -0.03021,0.277124 -0.07423,0.408248 -0.09616,0.28644 -0.152378,0.486508 -0.152378,0.800733 0,0.596835 -0.308651,1.075226 -0.03886,1.611426 0.08703,0.17296 0.09959,0.31898 0.147521,0.51008 0.02076,0.0828 0.0093,0.34092 0,0.25607 -0.02909,-0.26599 -0.05283,-0.53255 -0.07924,-0.79882"
       id="path48" />
    <path
       style="fill:none;stroke:#000000;stroke-width:0.103918px;stroke-linecap:butt;stroke-linejoin:miter;stroke-opacity:1"
       d="m 51.692841,43.733695 c -1.604282,0.25236 -1.60085,0.16768 -2.496984,-1.02717 -0.07411,-0.0988 -0.44572,-0.34559 -0.448433,-0.43381 -0.0029,-0.0951 0.575534,-0.13527 0.783516,-0.0931 0.552666,0.11195 1.737849,1.11036 2.161901,1.55412 z"
       id="path52" />
    <path
       style="fill:none;stroke:#000000;stroke-width:0.103918px;stroke-linecap:butt;stroke-linejoin:miter;stroke-opacity:1"
       d="m 66.178648,40.658845 c -0.364302,0.26048 -0.734565,0.51282 -1.092908,0.78144 -0.544382,0.40808 -0.924944,0.93206 -1.164218,1.53025 -0.03071,0.0768 -0.177528,0.52093 -0.076,0.50192 0.122298,-0.0229 0.326219,-0.22625 0.438274,-0.29371 0.105048,-0.0632 0.211349,-0.0452 0.326196,-0.11088 0.318057,-0.18183 0.765585,-0.78349 0.925521,-1.10537 0.08281,-0.16666 0.0152,-0.40768 0.07375,-0.58409 0.04359,-0.13131 0.540341,-0.67663 0.569386,-0.71956"
       id="path54" />
    <path
       style="fill:none;stroke:#000000;stroke-width:0.103918px;stroke-linecap:butt;stroke-linejoin:miter;stroke-opacity:1"
       d="m 59.895787,31.333238 c 0.03335,0.310254 0.130283,0.607486 0.187697,0.91275 0.04628,0.246037 0.03578,0.593169 0.149143,0.819921 0.175607,0.351215 0.362329,0.71631 0.482015,1.075375 0.08538,0.256128 0.430627,0.505817 0.519128,0.815564 0.08945,0.31307 0.07423,0.707048 0.07423,1.037333 0,0.243338 0.01143,0.86167 -0.251579,0.992455 -0.351761,0.174924 -0.498186,-0.469966 -0.578918,-0.630931 -0.1721,-0.343124 -0.108865,-0.823187 -0.259336,-1.073969 -0.07852,-0.13088 -0.198195,-0.198199 -0.296907,-0.296907 -0.139874,-0.139874 -0.199472,-0.378213 -0.331274,-0.553954 -0.08895,-0.118598 -0.215991,-0.200776 -0.293031,-0.328552 -0.205265,-0.340441 -0.365759,-0.882467 -0.702865,-1.107209 -0.357039,-0.238021 -1.514447,-0.500812 -1.924108,-0.295984 -0.294346,0.147175 -0.257317,0.493213 -0.473151,0.71149 -0.109443,0.11068 -1.17393,-0.137883 -1.352326,-0.182481 -0.263103,-0.06577 -0.530895,0.152533 -0.739282,0.221997 -0.143707,0.0479 -0.299154,0.008 -0.444436,0.03712 -0.25436,0.051 -1.061122,0.577351 -1.267145,0.440006 -0.109313,-0.07287 -0.07821,-0.234623 -0.11134,-0.334015 -0.08549,-0.256481 -0.06927,0.02973 -0.111343,-0.222684 -0.03641,-0.218383 0.200834,-0.664602 0.07423,-0.880585 -0.07504,-0.128017 -0.177143,-0.202768 -0.241281,-0.331033 -0.03107,-0.06212 0.04887,-0.267727 0.07422,-0.330802 0.123845,-0.308088 0.436777,-0.585243 0.668046,-0.816499 0.371485,-0.371461 1.564532,-0.225423 2.023394,0.004 0.22209,0.111043 0.476497,0.530175 0.800109,0.364466 0.04671,-0.02392 0.06935,-0.07985 0.111339,-0.111341 0.03437,-0.02577 0.138134,-0.04028 0.107762,-0.07065 -0.03099,-0.03101 0.0706,0.08434 0.09033,0.1238 0.101663,0.203314 0.172528,0.420421 0.372161,0.558068 0.101167,0.06976 0.44942,-0.01746 0.571636,0 0.267521,0.03822 0.753982,0.155224 0.929633,-0.102852 0.163208,-0.239797 -0.461152,-0.982651 0.51128,-0.982651 0.230818,0 0.03276,-0.03644 0.220822,-0.0733 0.215088,-0.04215 0.537988,0.32414 0.705159,0.408249 0.194805,0.09801 0.489179,0.154154 0.705991,0.203801 z"
       id="path56" />
    <path
       style="fill:none;stroke:#000000;stroke-width:0.103918px;stroke-linecap:butt;stroke-linejoin:miter;stroke-opacity:1"
       d="m 57.401159,63.753135 c -0.01748,-0.4955 -0.631107,-0.75019 -0.741108,-1.18321 -0.04467,-0.17584 -0.05791,-1.65921 0,-1.7743 0.07966,-0.15831 0.124395,-0.32362 0.185564,-0.50714 0.0449,-0.13468 0.08668,-0.60457 0.233186,-0.64354 0.518138,-0.13781 0.916943,0.7407 1.3622,0.85202 0.417328,0.10433 0.836219,0.20262 1.260491,0.2969 0.23123,0.0514 0.5126,-0.002 0.737381,0.0742 0.163141,0.0556 0.343096,0.11972 0.518503,0.14868 0.298601,0.0493 0.583333,0.0233 0.888893,0.0742 0.444915,0.0741 1.272898,-0.0674 1.661142,-0.22268 0.337405,-0.13496 0.987436,-1.16855 1.505346,-0.92644 0.123881,0.0579 -0.344836,1.06334 -0.410282,1.22492 -0.05542,0.13683 0.08299,0.21353 0.0054,0.32843 -0.06903,0.1022 -0.185619,0.10427 -0.280372,0.13585 -0.153216,0.0511 -0.403664,0.54885 -0.440332,0.69416 -0.02384,0.0944 -0.434193,1.24436 -0.482016,1.29222 -0.04633,0.0464 0.107357,-0.0775 0.168216,-0.10183 0.173003,-0.0692 0.341152,-0.15298 0.507674,-0.25315 0.176841,-0.10638 0.365586,-0.19471 0.559893,-0.26423"
       id="path60" />
    <path
       style="fill:none;stroke:#000000;stroke-width:0.103918px;stroke-linecap:butt;stroke-linejoin:miter;stroke-opacity:1"
       d="m 64.604443,65.706025 c -0.424594,0.39636 -0.620354,1.05443 -1.172792,1.33238 -1.275086,0.64153 -3.418228,0.62618 -4.866942,0.62618 -0.3422,0 -0.894834,-0.69994 -0.992722,-0.9911 -0.06006,-0.17864 -0.283534,-0.25056 -0.404226,-0.39531 -0.04593,-0.0551 0.0024,-0.20364 -0.0695,-0.20364 -0.06118,0 0.07312,0.0988 0.117086,0.14135"
       id="path62" />
    <path
       style="fill:none;stroke:#000000;stroke-width:0.103918px;stroke-linecap:butt;stroke-linejoin:miter;stroke-opacity:1"
       d="m 57.284655,61.850945 c 0.445575,0.42265 0.185006,-0.30197 0.340193,-0.35371 0.565831,-0.18862 1.654156,-0.15583 1.975426,0.4847 0.180203,0.35927 0.185108,0.67988 0.185108,1.07491 0,0.17904 0.06075,0.47947 0,0.65147 -0.227404,0.64381 -0.987715,1.10061 -1.655832,0.76659 -0.312272,-0.15611 -0.261158,-0.86971 -0.605162,-1.04538 -0.0357,-0.0182 -0.01709,0.0449 -0.123229,0.32361"
       id="path64" />
    <path
       style="fill:none;stroke:#000000;stroke-width:0.103918px;stroke-linecap:butt;stroke-linejoin:miter;stroke-opacity:1"
       d="m 64.604443,65.706025 c -0.344263,-0.37307 -0.633657,-0.80555 -1.032792,-1.11922 -0.08021,-0.063 -0.196875,0.0542 -0.296907,0.0742 -0.520302,0.10406 -1.069539,0.0742 -1.599963,0.0742 -0.439821,0 -0.936734,-0.0622 -1.372266,0 -0.235598,0.0337 -0.477067,0.10969 -0.703262,0.18509 -0.169826,0.0566 -0.563569,0.0684 -0.778464,0.11134 -0.219954,0.044 -0.552324,-0.0267 -0.736705,0.11088 -0.205964,0.15366 -0.286409,1.07932 -0.0346,1.21018 0.1827,0.0949 0.442861,0.0564 0.627023,0.14845 0.209966,0.10499 0.580119,-0.0214 0.814181,0.0371 0.517124,0.12928 2.838635,0.17848 3.262738,0.0371 0.535467,-0.17849 0.91366,-0.56703 1.377978,-0.86974 0.0072,-0.005 0.03091,-0.12458 0.09315,-0.11307 0.129945,0.024 0.253256,0.0756 0.379886,0.11342"
       id="path66" />
    <path
       style="fill:none;stroke:#000000;stroke-width:0.103918px;stroke-linecap:butt;stroke-linejoin:miter;stroke-opacity:1"
       d="m 64.805796,61.386785 c 0.13485,0.48892 0.147992,0.98415 0.147992,1.49806 0,0.0856 -0.10828,0.18816 -0.10828,0.26948 0,0.0174 -0.02899,0.0631 -0.02239,0.0471 0.07852,-0.19103 0.135978,-0.0761 -0.182201,-0.20313"
       id="path74" />
    <path
       style="fill:none;stroke:#000000;stroke-width:0.103918px;stroke-linecap:butt;stroke-linejoin:miter;stroke-opacity:1"
       d="m 50.467938,42.803795 c 0.06744,0.0233 0.08747,0.0169 0.127773,0.0745 0.05246,0.0749 0.07647,0.50358 0.04639,0.59381 -0.01724,0.0517 -0.04705,0.1009 -0.07423,0.14846 -0.006,0.0106 -0.02612,0.0514 -0.04599,0.0554 -0.123186,0.0243 -0.376725,0.093 -0.501835,0.01 -0.215036,-0.14335 -0.353583,-0.36753 -0.493409,-0.57711 -0.03935,-0.059 -0.160981,-0.10799 -0.186456,-0.15862 -0.05779,-0.11484 -0.06461,-0.28228 -0.0456,-0.41461 0.03829,-0.26677 0.523275,-0.13253 0.659202,-0.0603 0.184452,0.098 0.372086,0.17631 0.514151,0.32888 z"
       id="path76" />
    <path
       style="fill:none;stroke:#000000;stroke-width:0.103918px;stroke-linecap:butt;stroke-linejoin:miter;stroke-opacity:1"
       d="m 65.548915,41.813435 c -0.05232,-0.0214 -0.141147,-0.11763 -0.213258,-0.0815 -0.216717,0.1087 -0.608779,0.75752 -0.492903,0.99032 0.0091,0.0183 0.04481,0.0179 0.05733,0.0243"
       id="path82" />
    <path
       style="fill:none;stroke:#000000;stroke-width:0.103918px;stroke-linecap:butt;stroke-linejoin:miter;stroke-opacity:1"
       d="m 63.910619,52.834385 c 0.136995,-0.24573 0.102872,-0.52482 0.132643,-0.79277 0.0093,-0.0841 0.04486,-0.16483 0.05248,-0.24931 0.02078,-0.2299 0.0526,-0.45554 0.06784,-0.68744 0.02533,-0.3853 -0.0043,0.10266 0.04092,-0.19496 0.01909,-0.12551 0.01426,-0.29262 0,-0.41981 -0.02015,-0.17981 -0.07654,-0.33525 -0.132569,-0.50256 -0.03551,-0.10604 -0.02203,-0.22374 -0.03988,-0.33087 -0.02478,-0.14862 -0.05248,-0.27877 -0.05248,-0.43219 0,-0.14487 -0.01795,-0.30261 0,-0.44614 0.02871,-0.22972 0.17823,-0.5755 0.291,-0.77792 0.05265,-0.0945 0.09394,-0.22508 0.09394,-0.3345 0,-0.045 0.03075,-0.0686 0.06244,-0.10025 0.0041,-0.004 0.01198,-0.018 0.01221,-0.0122 0.0012,0.0288 -0.006,0.0574 -0.009,0.0861"
       id="path88" />
    <path
       style="fill:none;stroke:#000000;stroke-width:0.103918px;stroke-linecap:butt;stroke-linejoin:miter;stroke-opacity:1"
       d="m 65.674013,61.121275 c 0.02258,-0.13485 0.0474,-0.26934 0.06778,-0.40453 0.01807,-0.11986 7.85e-4,-0.2408 0.02679,-0.35854 0.05854,-0.26376 0.150109,-0.39214 0.150109,-0.68624 0,-0.0682 0.02808,-0.21556 -0.01312,-0.27735 -0.291688,-0.43753 -0.614415,-0.90807 -0.850677,-1.38059 -0.0468,-0.0936 -0.124077,-0.16465 -0.17404,-0.25421 -0.03755,-0.0673 -0.06587,-0.14477 -0.105334,-0.21055 -0.0216,-0.036 -0.07653,-0.0667 -0.09185,-0.10497 -0.05981,-0.14952 -0.131768,-0.29616 -0.209782,-0.43268 -0.106399,-0.1862 -0.170627,-0.42674 -0.212134,-0.63427 -0.01457,-0.0729 -0.07748,-0.15432 -0.104973,-0.22306 -0.02419,-0.0605 -0.06115,-0.1353 -0.07873,-0.19683 -0.0163,-0.0571 -0.01131,-0.12756 -0.03937,-0.1837 -0.04012,-0.0802 -0.07824,-0.15925 -0.105582,-0.25016 -0.0247,-0.0822 -0.0295,-0.17207 -0.05318,-0.25349 -0.139312,-0.47861 -0.257961,-0.87065 -0.204605,-1.39017 0.02027,-0.19725 0.07397,-0.38893 0.106776,-0.58349 0.02557,-0.15162 0.01292,-0.31225 0.05027,-0.46273 0.0064,-0.0258 0.02455,-0.098 0.04036,-0.12124 0.0049,-0.007 0.0092,-0.0319 0.01178,-0.0236 0.01461,0.047 0.0174,0.097 0.02612,0.14547"
       id="path90" />
    <path
       style="fill:none;stroke:#000000;stroke-width:0.103918px;stroke-linecap:butt;stroke-linejoin:miter;stroke-opacity:1"
       d="m 64.604443,65.706025 c 0.318348,-0.1777 -3.93e-4,-0.48952 0.07443,-0.71397 0.03507,-0.10522 0.142832,-0.19141 0.197555,-0.28977 0.07828,-0.14071 0.122592,-0.29799 0.199432,-0.43835 7.86e-4,-0.001 0.107196,-0.16056 0.107939,-0.16203 0.05184,-0.1033 0.06963,-0.221 0.105994,-0.33008 0.04563,-0.13689 0.09953,-0.26339 0.158605,-0.39557 0.05796,-0.12968 0.04441,-0.29353 0.09235,-0.42137 0.0077,-0.0205 0.03075,-0.0324 0.03937,-0.0525 0.02482,-0.0579 0.01088,-0.14848 0.02624,-0.20994 0.08212,-0.32848 0.09185,-0.65355 0.09185,-0.9961 0,-0.0701 0.02525,-0.35502 0,-0.40549 -0.05442,-0.10883 -0.03397,-0.13269 -0.02419,-0.16959"
       id="path92" />
    <path
       style="fill:none;stroke:#000000;stroke-width:0.103918px;stroke-linecap:butt;stroke-linejoin:miter;stroke-opacity:1"
       d="m 64.430167,47.639565 c -0.07382,-0.21876 0.09043,-0.36842 0.117793,-0.55993 0.01131,-0.0792 0.01493,-0.15446 0.02785,-0.23195 0.02089,-0.12524 0.09603,-0.24686 0.111728,-0.3725 0.0057,-0.0459 -0.0035,-0.0946 0.0093,-0.13918 0.02408,-0.0843 0.01858,0.009 0.01858,-0.0742 0,-0.048 0.0058,-0.19819 0.01854,-0.24077 0.006,-0.0199 0.02239,-0.0357 0.02785,-0.0557 0.01253,-0.046 0.0057,-0.11066 0.0093,-0.15773 0.0046,-0.0593 0.01626,-0.1149 0.03712,-0.16701 0.02097,-0.0525 -3.92e-4,-0.14591 0.0093,-0.20413 0.01434,-0.086 0.01524,-0.53017 0,-0.62165 -0.0099,-0.0591 -0.03244,-0.27583 -0.0093,-0.33379 0.05445,-0.13611 0.153122,-0.2819 0.185391,-0.42636 0.02164,-0.0969 0.04989,-0.19965 0.07423,-0.297 0.01775,-0.071 0.08326,-0.15265 0.11134,-0.22268 0.04496,-0.11212 0.04616,-0.383 0.04616,-0.50869 0,-0.0985 0.006,-0.19989 0.02742,-0.29525 0.0083,-0.0371 0.01873,-0.0435 0.01873,-0.0806 0,-0.003 0.0068,-0.0149 0.0068,-0.0123 0,0.007 -0.0068,0.0255 -0.0068,0.0188 0,-0.0409 -0.02003,-0.0712 -0.02003,-0.11004 0,-0.007 0,-0.0263 0,-0.0197 0,0.12152 0.0041,0.0117 -0.295675,0.14621"
       id="path102" />
    <path
       style="fill:none;stroke:#000000;stroke-width:0.103918px;stroke-linecap:butt;stroke-linejoin:miter;stroke-opacity:1"
       d="m 63.556192,32.464547 c -0.109148,-0.135698 -0.189417,-0.298443 -0.300242,-0.431389 -0.04798,-0.05756 -0.106234,-0.110662 -0.151134,-0.17053 -0.03527,-0.04702 -0.06539,-0.101404 -0.102063,-0.148454 -0.03221,-0.04131 -0.07569,-0.06807 -0.104113,-0.113476 -0.02251,-0.03593 -0.03806,-0.08871 -0.06534,-0.121605 -0.05922,-0.07138 -0.133366,-0.133925 -0.195198,-0.204649 -0.05194,-0.0594 -0.07193,-0.136501 -0.121167,-0.19558 -0.04847,-0.05817 -0.11282,-0.110767 -0.169928,-0.160396 -0.06887,-0.05985 -0.145239,-0.09989 -0.218198,-0.151999 -0.08859,-0.06328 -0.135538,-0.114687 -0.233653,-0.177133 -0.08049,-0.05123 -0.14923,-0.125587 -0.227499,-0.180777 -0.103752,-0.07316 -0.211262,-0.143669 -0.316287,-0.213684 -0.144657,-0.09644 -0.262321,-0.236018 -0.399465,-0.342538 -0.06263,-0.04864 -0.127545,-0.08798 -0.187625,-0.140546 -0.1617,-0.14149 -0.387337,-0.21773 -0.537733,-0.368124 -0.07309,-0.07309 -0.132192,-0.169473 -0.206149,-0.243433 -0.02608,-0.02608 -0.05952,-0.04608 -0.0844,-0.07512 -0.08382,-0.0978 -0.220398,-0.332347 -0.269595,-0.455335 -0.02899,-0.07246 -0.02223,-0.158066 -0.04639,-0.231495 -0.07091,-0.215403 -0.142808,-0.419505 -0.304597,-0.581303"
       id="path106" />
    <path
       style="fill:none;stroke:#000000;stroke-width:0.103918px;stroke-linecap:butt;stroke-linejoin:miter;stroke-opacity:1"
       d="m 64.723116,36.779223 c -0.130966,-0.0929 -0.238579,-0.152301 -0.276347,-0.315269 -0.02066,-0.08907 -0.03912,-0.180046 -0.04675,-0.271712 -0.0024,-0.02891 0.0035,-0.114989 0,-0.137187 -0.02926,-0.193152 -0.109757,-0.378806 -0.173561,-0.562037 -0.01076,-0.03091 -0.0035,-0.06767 -0.01968,-0.09618 -0.0671,-0.119097 -0.161633,-0.247177 -0.230468,-0.364459 -0.05042,-0.08589 -0.121183,-0.182657 -0.183706,-0.261021 -0.04105,-0.05145 -0.101918,-0.08421 -0.144525,-0.135247 -0.03943,-0.04723 -0.06265,-0.112821 -0.102318,-0.158074 -0.05414,-0.06175 -0.131543,-0.10486 -0.186801,-0.168043 -0.09087,-0.103905 -0.223924,-0.244906 -0.292799,-0.359439 -0.04681,-0.07784 -0.10537,-0.170761 -0.140954,-0.253142 -0.0063,-0.01453 -0.0016,-0.03276 -0.0093,-0.04656 -0.02514,-0.04492 -0.06502,-0.07889 -0.08469,-0.131233 -0.03755,-0.09995 -0.03727,-0.230841 -0.03727,-0.337433 0,-0.0413 -0.0132,-0.12738 0,-0.167009 0.01701,-0.05097 0.316243,-0.248323 0.373327,-0.289096 0.06218,-0.04442 0.09502,-0.13866 0.157733,-0.176291 0.01752,-0.01051 0.151822,-0.114582 0.145137,-0.127947 -0.0024,-0.0051 -0.02046,0.0051 -0.01536,0.0077 0.03205,0.0159 0.06766,0.02335 0.101489,0.03503"
       id="path108" />
    <path
       style="fill:none;stroke:#000000;stroke-width:0.103918px;stroke-linecap:butt;stroke-linejoin:miter;stroke-opacity:1"
       d="m 68.768059,34.277906 c -0.11258,0.01174 -0.226,0.02321 -0.33794,0.04001 -0.1843,0.02765 -0.3621,0.07129 -0.54972,0.0801 -0.280829,0.0132 -0.565718,0 -0.846852,0 -0.299909,0 -0.593215,0.0073 -0.889619,-0.03865 -0.160337,-0.02486 -0.329747,-0.06026 -0.490987,-0.07144 -0.02647,-0.002 -0.05361,0.0055 -0.07954,0 -0.08987,-0.01909 -0.164889,-0.08011 -0.253001,-0.106411 -0.08395,-0.02506 -0.163196,-0.03492 -0.24242,-0.07462 -0.0388,-0.01944 -0.188022,-0.0258 -0.233913,-0.03727 -0.04679,-0.0117 -0.08623,-0.04117 -0.130333,-0.05593 -0.05709,-0.01913 -0.118669,-0.01756 -0.176719,-0.04656 -0.229549,-0.114776 -0.428506,-0.293298 -0.623991,-0.456199 -0.146005,-0.121673 -0.361454,-0.22026 -0.489282,-0.350645 -0.05318,-0.05424 -0.07262,-0.144132 -0.120617,-0.204122 -0.0516,-0.06451 -0.130007,-0.120841 -0.167013,-0.194848"
       id="path110" />
    <path
       style="fill:none;stroke:#000000;stroke-width:0.103918px;stroke-linecap:butt;stroke-linejoin:miter;stroke-opacity:1"
       d="m 75.373079,36.172855 c -0.0894,-0.123759 -0.28742,-0.270329 -0.42911,-0.328073 -0.0244,-0.0099 -0.0527,-0.0084 -0.0767,-0.01936 -0.0906,-0.04166 -0.1932,-0.119211 -0.27332,-0.179299 -0.12891,-0.09668 -0.24659,-0.218367 -0.35964,-0.331408 -0.0591,-0.05909 -0.15351,-0.09306 -0.22268,-0.139174 -0.0677,-0.04515 -0.12934,-0.104043 -0.20063,-0.143449 -0.0687,-0.03798 -0.14728,-0.07146 -0.21607,-0.11282 -0.16292,-0.09796 -0.29137,-0.256818 -0.48098,-0.311196 -0.0781,-0.02239 -0.16737,-0.02545 -0.24788,-0.03934 -0.1126,-0.01944 -0.22173,-0.05147 -0.32795,-0.08695 -0.0872,-0.0291 -0.18602,-0.01665 -0.2748,-0.02954 -0.1129,-0.01638 -0.22651,-0.05219 -0.33833,-0.0744 -0.10133,-0.02011 -0.20622,-0.01551 -0.30801,-0.0324 -0.15737,-0.02616 -0.314,-0.05339 -0.46949,-0.08163 -0.0406,-0.0074 -0.0833,7.86e-4 -0.12333,-0.0095 -0.0354,-0.0089 -0.0654,-0.03456 -0.10106,-0.04205 -0.0326,-0.0068 -0.0666,0.002 -0.0999,0 -0.1713,-0.01033 -0.34358,-0.02439 -0.51412,-0.03837 -0.16248,-0.01335 -0.33064,0 -0.49385,0 -0.1839,0 -0.37526,-0.01343 -0.55685,0.0093 -0.13531,0.01693 -0.25975,0.07632 -0.39015,0.102405 -0.0411,0.0082 -0.0896,0.0024 -0.1299,0.01854 -0.0156,0.0062 -0.0647,0.01489 -0.048,0.01489 0.023,0 0.0751,-0.03958 0.0776,-0.04114"
       id="path114" />
    <path
       style="fill:none;stroke:#000000;stroke-width:0.103918px;stroke-linecap:butt;stroke-linejoin:miter;stroke-opacity:1"
       d="m 76.242819,40.665015 c 0.24576,-0.34233 0.4615,-0.699689 0.56779,-1.109794 0.0394,-0.151881 0.0941,-0.300286 0.13253,-0.450375 0.0329,-0.128331 0.022,-0.272034 0.022,-0.403731 0,-0.122529 0.0275,-0.396574 0,-0.509744 -0.006,-0.02561 -0.0246,-0.04712 -0.0313,-0.07261 -0.0194,-0.07394 -0.009,-0.158746 -0.0282,-0.234942 -0.024,-0.09735 -0.0768,-0.190866 -0.11143,-0.285101 -0.023,-0.06267 -0.0271,-0.128845 -0.048,-0.191647 -0.0563,-0.168829 -0.11962,-0.321353 -0.20547,-0.477303 -0.25393,-0.461286 -0.25635,-0.517596 -0.77627,-0.648582 -0.14288,-0.03602 -0.2652,-0.11139 -0.4,-0.1677 -0.181,-0.0756 0.0192,0.0071 -0.0835,-0.01854 -0.008,-0.002 -0.0119,-0.02376 -0.0178,-0.01783 -0.0344,0.03437 0.0731,0.06405 0.10991,0.09574"
       id="path116" />
    <path
       style="fill:none;stroke:#000000;stroke-width:0.103918px;stroke-linecap:butt;stroke-linejoin:miter;stroke-opacity:1"
       d="m 76.242819,40.665015 c -0.16488,0.25709 -0.37261,0.48139 -0.53324,0.7384 -0.0672,0.10759 -0.14016,0.21817 -0.25368,0.28113 -0.28555,0.15835 -0.63897,0.15523 -0.95207,0.19997 -0.19,0.0271 -0.37787,0.0804 -0.57135,0.0947 -0.33775,0.025 -0.687,0 -1.02571,0 -0.52598,0 -1.05195,0 -1.57792,0 -0.1723,0 -0.34461,0 -0.51692,0 -0.0746,0 -0.1612,0.0114 -0.23493,0 -0.18486,-0.0287 -0.36064,-0.087 -0.54378,-0.12324 -0.21376,-0.0423 -0.43628,-0.0384 -0.6489,-0.0825 -0.10144,-0.021 -0.20253,-0.0565 -0.30475,-0.0786 -0.22785,-0.0492 -0.46474,-0.0488 -0.69448,-0.0856 -0.0982,-0.0157 -0.19459,-0.0504 -0.29209,-0.0713 -0.13566,-0.0292 -0.28306,-0.018 -0.416157,-0.0579 -0.079,-0.0237 -0.146842,-0.0532 -0.22268,-0.0835 -0.07232,-0.0289 -0.150494,-0.0411 -0.224066,-0.0657 -0.14582,-0.0486 -0.273248,-0.12434 -0.395149,-0.21586 -0.05335,-0.0401 -0.271614,-0.16746 -0.305953,-0.21329 -0.08194,-0.10936 -0.168753,-0.20907 -0.243091,-0.32714 -0.03625,-0.0575 -0.05438,-0.12962 -0.103799,-0.17904 -0.07133,-0.0713 -0.153868,-0.1655 -0.185568,-0.259798 -0.02683,-0.07986 0.0093,-0.193498 0,-0.277772 -0.0061,-0.05469 -0.01406,-0.02357 -0.028,-0.08377 -0.01166,-0.05036 -0.0039,-0.09939 -0.01854,-0.148629 -0.02518,-0.08401 -0.05992,-0.167567 -0.0839,-0.251492 -0.01783,-0.06243 -0.0024,-0.140287 -0.01858,-0.204122 -0.04358,-0.173306 -0.04044,-0.359514 -0.112392,-0.531068 -0.03005,-0.07167 -0.07142,-0.09784 -0.111874,-0.158522 -0.03696,-0.05544 -0.06161,-0.120915 -0.09304,-0.176719 -0.03386,-0.06007 -0.09671,-0.108284 -0.129505,-0.16818 -0.05367,-0.09804 -0.07254,-0.223559 -0.113045,-0.328803 -0.0594,-0.154316 0.0062,0.01921 -0.08372,-0.145393 -0.03358,-0.06141 -0.04625,-0.137356 -0.07976,-0.200103 -0.04281,-0.08016 -0.09739,-0.155357 -0.151307,-0.227248 -0.04148,-0.0553 -0.106143,-0.09204 -0.148456,-0.148452 -0.03248,-0.04328 -0.01143,-0.116308 -0.02785,-0.163977 -0.01555,-0.04521 -0.04799,-0.09844 -0.07346,-0.142266"
       id="path118" />
    <path
       style="fill:none;stroke:#000000;stroke-width:0.103918px;stroke-linecap:butt;stroke-linejoin:miter;stroke-opacity:1"
       d="m 70.976579,34.441016 c -0.36766,-0.03554 -0.72943,0.03217 -1.09204,0.05554 -0.38898,0.0251 -0.87027,-0.08755 -1.24959,0.02624 -0.94072,0.282214 -1.871233,0.578878 -2.834341,0.7715 -0.174799,0.03495 -0.386245,0.237157 -0.523405,0.339706 -0.431978,0.322975 -0.557508,0.125275 -0.851187,-0.02156"
       id="path120" />
    <path
       style="fill:none;stroke:#000000;stroke-width:0.103918px;stroke-linecap:butt;stroke-linejoin:miter;stroke-opacity:1"
       d="m 47.685057,40.730215 c 0.0056,0.15777 0.02337,0.31558 0.01676,0.47332 -0.0028,0.0661 -0.202826,0.33136 -0.249839,0.3943 -0.09918,0.13275 -0.159516,0.29399 -0.269276,0.41922 -0.05077,0.0579 -0.129039,0.094 -0.172247,0.15877 -0.04475,0.0671 -0.07711,0.13066 -0.144699,0.18418 -0.06298,0.0499 -0.138062,0.073 -0.201497,0.12056 -0.157519,0.1182 -0.302917,0.2582 -0.462982,0.37038 -0.09607,0.0673 -0.210747,0.11491 -0.305069,0.18568 -0.0576,0.0432 -0.09423,0.10651 -0.157459,0.14434 -0.199205,0.11915 -0.394256,0.23861 -0.59066,0.35952 -0.185004,0.11391 -0.356208,0.27943 -0.555107,0.36781 -0.253764,0.11275 -0.535201,0.1773 -0.802056,0.25007 -0.368808,0.10059 -0.726425,0.22137 -1.094492,0.30357 -0.0758,0.0169 -0.184556,0 -0.262432,0 -0.361566,0 -0.605449,-0.0185 -0.965233,-0.0851 -0.161592,-0.0299 -0.321946,-0.0423 -0.482614,-0.0706 -0.147795,-0.0261 -0.291321,-0.0905 -0.435526,-0.13232 -0.04793,-0.0139 -0.100494,-0.009 -0.147395,-0.0262 -0.121164,-0.0441 -0.211298,-0.12491 -0.320008,-0.18737 -0.101799,-0.0585 -0.229047,-0.11217 -0.326429,-0.17709 -0.123846,-0.0826 -0.221762,-0.22234 -0.328408,-0.32853 -0.06507,-0.0648 -0.146773,-0.11968 -0.218548,-0.17718 -0.138468,-0.11094 -0.277118,-0.23129 -0.429117,-0.3233 -0.09114,-0.0552 -0.192639,-0.0906 -0.27618,-0.15746 -0.125314,-0.10025 -0.180536,-0.25373 -0.27539,-0.3802 -0.102987,-0.13732 -0.309589,-0.38971 -0.43836,-0.50542 -0.05291,-0.0475 -0.135335,-0.0953 -0.184421,-0.14469 -0.0296,-0.0298 -0.03938,-0.075 -0.06675,-0.10689 -0.224039,-0.26076 -0.408573,-0.57078 -0.477072,-0.91223 -0.05022,-0.25032 -0.02947,-0.49431 -0.04257,-0.748045 -0.01143,-0.221344 0.01747,-0.463728 -0.01383,-0.682795 -0.01775,-0.124246 -0.0645,-0.411711 -0.02624,-0.537658 0.02368,-0.07794 0.08374,-0.152363 0.107233,-0.228716 0.05472,-0.177846 0.09115,-0.366996 0.150095,-0.543499 0.02917,-0.08737 0.09716,-0.167202 0.138036,-0.248637 0.169253,-0.337212 0.378475,-0.674621 0.680092,-0.909209 0.11734,-0.09127 0.326998,-0.249023 0.459878,-0.302171 0.121025,-0.04841 0.01077,0.02753 0.131216,-0.03937 0.184801,-0.102668 0.353751,-0.222857 0.551108,-0.301798 0.03927,-0.01571 0.06163,-0.05476 0.104643,-0.06544 0.06043,-0.015 0.108313,-0.04763 0.17009,-0.06528 0.200265,-0.05722 0.389142,-0.09663 0.566294,-0.197858 0.08423,-0.04813 0.186129,-0.04892 0.275554,-0.07873 0.208222,-0.06941 0.412306,-0.192779 0.607433,-0.291158 0.04981,-0.0251 0.168688,-0.08268 0.222739,-0.09169 0.06408,-0.01068 0.03765,0.01398 0.09185,-0.01312 0.213704,-0.106851 0.474689,-0.05779 0.697553,-0.132078 0.368912,-0.122973 0.64903,-0.09123 1.069462,-0.09123 0.153729,0 0.332732,-0.02526 0.484624,0 0.257427,0.04277 0.476465,0.252046 0.735412,0.289036 0.182002,0.026 0.468528,-0.0012 0.628844,-0.06561 0.02816,-0.01135 0.04427,-0.03849 0.07647,-0.05136 0.05366,-0.02144 0.123822,-0.08661 0.154169,-0.127777 0.0206,-0.02793 0.100844,-0.09541 0.0763,-0.07086 -0.0854,0.08538 -0.241051,0.01618 -0.361773,0.01928"
       id="path122" />
    <path
       style="fill:none;stroke:#000000;stroke-width:0.103918px;stroke-linecap:butt;stroke-linejoin:miter;stroke-opacity:1"
       d="m 40.756304,42.675795 c -0.23095,-0.0687 -0.471548,-0.0898 -0.707988,-0.12927 -0.08434,-0.0141 -0.174239,-3.1e-4 -0.254943,-0.0286 -0.135115,-0.0473 -0.229719,-0.13818 -0.349999,-0.20974 -0.04429,-0.0264 -0.09712,-0.038 -0.13848,-0.0688 -0.06122,-0.0455 -0.09931,-0.11975 -0.15746,-0.17058 -0.216913,-0.18964 -0.382074,-0.42065 -0.541361,-0.65958 -0.122853,-0.18428 -0.271761,-0.3422 -0.380527,-0.53798 -0.04306,-0.0775 -0.0378,-0.16356 -0.06616,-0.23952 -0.135822,-0.36378 -0.119298,-0.744715 -0.119298,-1.13464 0,-0.265616 -0.01562,-0.535965 0.04063,-0.793636 0.036,-0.164904 0.137123,-0.322888 0.1994,-0.477703 0.04207,-0.104588 0.0459,-0.224836 0.09185,-0.328041 0.03578,-0.08037 0.08059,-0.178549 0.131944,-0.250405 0.05239,-0.0733 0.137328,-0.135196 0.184432,-0.210917 0.04316,-0.06938 0.07313,-0.139575 0.131767,-0.198206 0.07602,-0.07602 0.211564,-0.12731 0.301797,-0.183702 0.11004,-0.06878 0.196864,-0.146355 0.314423,-0.196495 0.137662,-0.05871 0.31464,-0.05643 0.460633,-0.105248 0.08796,-0.02942 0.161547,-0.09088 0.243744,-0.122757 0.164127,-0.06365 -0.06097,0.06985 0.104973,-0.01312 0.09419,-0.0471 0.192678,-0.129439 0.288676,-0.17058 0.09129,-0.03912 0.146055,-0.04247 0.236189,-0.104973 0.105781,-0.07335 0.186814,-0.1767 0.290394,-0.250688 0.10115,-0.07225 0.138036,-0.216764 0.223069,-0.301797 0.122669,-0.122667 0.246355,-0.308345 0.246355,-0.352892"
       id="path124" />
    <path
       style="fill:none;stroke:#000000;stroke-width:0.103918px;stroke-linecap:butt;stroke-linejoin:miter;stroke-opacity:1"
       d="m 47.31172,39.985113 c -0.09725,0.0082 -0.19869,0.01006 -0.286574,0.03937 -0.08129,0.0271 -0.275465,0.432442 -0.315284,0.525352 -0.04584,0.10695 -0.133856,0.18804 -0.184953,0.29024 -0.08056,0.16111 -0.163662,0.34056 -0.249555,0.51235 -0.08225,0.1645 -0.121154,0.35881 -0.223433,0.51223 -0.03879,0.0582 -0.09206,0.11185 -0.131216,0.17058 -0.04973,0.0746 -0.09559,0.16948 -0.171526,0.22401 -0.06626,0.0476 -0.147569,0.11964 -0.225664,0.1458 -0.09174,0.0307 -0.196138,0.0423 -0.279746,0.0946 -0.05754,0.036 -0.114487,0.0721 -0.183702,0.0918 -0.0562,0.0161 -0.127382,0.0186 -0.183703,0.0394 -0.06898,0.0254 -0.129222,0.0727 -0.201903,0.0945 -0.170569,0.0512 -0.361717,-0.004 -0.532197,0.0396 -0.03403,0.009 -0.06271,0.0333 -0.0969,0.0413 -0.135567,0.0317 -0.285277,-3.1e-4 -0.423253,0.0134 -0.112545,0.0112 -0.215898,0.0445 -0.330098,0.0533 -0.110703,0.009 -0.21162,0.0334 -0.318159,0.0528 -0.06269,0.0114 -0.133269,-0.006 -0.196824,0 -0.357793,0.0358 -0.728398,0.0131 -1.089095,0.0131 -0.241527,0 -0.546825,-0.049 -0.748952,-0.18374 -0.03171,-0.0211 -0.248263,-0.1321 -0.265794,-0.11456 -0.02127,0.0213 0.05467,0.0254 0.08311,0.0352"
       id="path126" />
    <path
       style="fill:none;stroke:#000000;stroke-width:0.103918px;stroke-linecap:butt;stroke-linejoin:miter;stroke-opacity:1"
       d="m 66.52714,39.304105 c 0.587787,0.271818 1.230819,0.341639 1.854209,0.483057 0.23692,0.05374 0.45669,0.18523 0.69195,0.231187 0.35229,0.06882 0.70485,0.0959 1.06149,0.109843 0.10305,0.0086 0.2061,0.0172 0.30915,0.0258 0.0706,0.01559 0.13978,0.04056 0.21181,0.04679 0.50417,0.04364 1.03434,0 1.54119,0 0.63481,0 1.27404,0.0209 1.90704,-0.01956 0.3137,-0.02007 1.2942,-0.23987 1.34171,-0.619902 0.0142,-0.113747 0.0601,-0.220939 0.0742,-0.334023 0.0762,-0.609522 -0.0323,-1.34746 -0.36927,-1.865971 -0.18502,-0.284709 -0.50909,-0.616705 -0.81577,-0.780926 -0.0969,-0.05188 -0.23495,-0.09826 -0.31896,-0.161743 -0.15251,-0.11524 -0.26132,-0.288098 -0.43037,-0.393755 -0.26218,-0.16386 -0.56294,-0.268118 -0.81624,-0.437861 -0.27228,-0.182477 -0.58486,-0.295215 -0.86348,-0.469353 -0.16274,-0.101717 -0.2665,-0.259148 -0.43369,-0.359463 -0.13348,-0.08008 -0.25596,-0.174032 -0.38901,-0.240554 -0.0233,-0.01167 -0.0307,-0.04669 -0.0553,-0.05532 -0.0407,-0.0143 -0.16573,-0.04808 -0.12413,-0.03664 0.024,0.0066 0.0486,0.01021 0.0729,0.01532"
       id="path128" />
    <path
       style="fill:none;stroke:#000000;stroke-width:0.103918px;stroke-linecap:butt;stroke-linejoin:miter;stroke-opacity:1"
       d="m 56.992637,59.051505 c -0.110967,-0.12697 -0.06539,-0.30834 -0.112671,-0.45017 -0.03837,-0.11514 -0.101541,-0.16846 -0.167693,-0.26048 -0.133284,-0.18539 -0.239415,-0.40634 -0.313518,-0.62104 -0.01009,-0.0292 0.0061,-0.0625 0,-0.0928 -0.02514,-0.12515 -0.08553,-0.24998 -0.112828,-0.37734 -0.03048,-0.14217 -0.02718,-0.31351 -0.07422,-0.4493 -0.07153,-0.20638 -0.184755,-0.40307 -0.250456,-0.61747 -0.04023,-0.13129 -0.09999,-0.30797 -0.126783,-0.4398 -0.05986,-0.29455 0.05895,0.0219 -0.01854,-0.24177 -0.11848,-0.40311 -0.25969,-0.79595 -0.392824,-1.19437 -0.07078,-0.21184 -0.07109,-0.41283 -0.152992,-0.62688 -0.161126,-0.42106 -0.296004,-0.83523 -0.377302,-1.28449 -0.03005,-0.16596 0.02749,-0.34741 0,-0.51388 -0.02738,-0.16577 -0.09566,-0.33735 -0.112463,-0.50537 -0.04126,-0.41262 -0.05648,-0.88116 -0.168942,-1.27479 -0.04867,-0.17035 -0.0027,-0.56827 -0.05567,-0.77939 -0.04963,-0.19851 -0.159472,-0.38471 -0.222448,-0.57363 -0.04844,-0.14533 0,-0.38523 0,-0.53815 0,-0.35343 0.0012,-0.74979 -0.03751,-1.09681 -0.01041,-0.0936 -0.03767,-0.14984 -0.05638,-0.24229 -0.05527,-0.27326 -0.01924,-0.58025 -0.05606,-0.85773 -0.09423,-0.71025 -0.151994,-1.42671 -0.292292,-2.13857 -0.07052,-0.35781 -0.181224,-0.70851 -0.328898,-1.04002 -0.03939,-0.0884 -0.01917,-0.1931 -0.05567,-0.28005 -0.01826,-0.0435 -0.0573,-0.0757 -0.07824,-0.11796 -0.137769,-0.27822 -0.224435,-0.58411 -0.363378,-0.86328"
       id="path130" />
    <path
       style="fill:none;stroke:#000000;stroke-width:0.103918px;stroke-linecap:butt;stroke-linejoin:miter;stroke-opacity:1"
       d="m 63.697252,49.839365 c -0.0295,-0.18496 -0.06456,-0.35323 -0.114093,-0.52844 -0.03884,-0.1374 -0.01964,-0.27788 -0.03845,-0.41566 -0.05758,-0.4211 -0.154108,-0.88867 -0.30688,-1.28656 -0.02148,-0.056 -0.06767,-0.1 -0.09054,-0.15537 -0.15249,-0.36959 -0.248948,-0.75272 -0.356839,-1.13693 -0.146021,-0.51998 -0.338077,-1.0179 -0.399776,-1.55022 -0.02211,-0.19085 -0.07319,-0.37714 -0.08658,-0.57009 -0.0076,-0.10972 0.0016,-0.23224 -0.01893,-0.34044 -0.01807,-0.0957 -0.05213,-0.10764 -0.04,-0.19253 0.01799,-0.12588 0.157195,-0.45096 0.206734,-0.59957 0.0575,-0.1725 0.221435,-0.29141 0.301475,-0.45106 0.188957,-0.37689 0.42613,-0.72936 0.836537,-0.91177 0.07417,-0.0329 0.165074,-0.0303 0.241238,-0.0557 0.205571,-0.0685 0.36017,-0.25112 0.53994,-0.35385 0.04355,-0.0249 0.100484,-0.008 0.148456,-0.0557"
       id="path134" />
    <path
       style="fill:none;stroke:#000000;stroke-width:0.264583px;stroke-linecap:butt;stroke-linejoin:miter;stroke-opacity:1"
       d="m 12.098964,20.288728 c 12.840493,-0.527138 25.628414,1.678776 38.422984,2.179121 9.127448,0.356942 18.268851,0 27.403271,0 2.01587,0 4.03175,0 6.04762,0 1.2548,0 2.50194,-0.288049 1.75627,0.08478"
       id="path150" />
    <path
       style="fill:none;stroke:#000000;stroke-width:0.264583px;stroke-linecap:butt;stroke-linejoin:miter;stroke-opacity:1"
       d="m 12.098964,20.288728 c 0.607422,3.477117 0.33098,7.076167 0.572235,10.590974 0.04702,0.685091 0.215734,1.356876 0.29133,2.039406 0.404506,3.651991 0.651661,7.320897 1.125136,10.940057 0.145603,1.11298 -0.08604,2.28119 0,3.40158 0.06335,0.82493 0.19495,1.69924 0.09649,2.53298 -0.349353,2.95822 -0.877472,5.87203 -1.173903,8.83633 -0.219782,2.19783 0,4.5329 0,6.7419 0,1.79227 -0.253191,3.8115 0,5.58383 0.131725,0.92208 0.562356,2.41848 0.562356,3.29631 1.892484,0.46587 3.53635,-0.56213 5.365749,-0.63135 6.574232,-0.24872 13.200231,0 19.780308,0 2.225469,0 4.650132,0.16214 6.885584,0 0.730696,-0.053 1.445644,-0.25663 2.176732,-0.30391 5.360349,-0.34664 10.788914,0.17759 16.15933,0 3.531653,-0.11678 7.058928,-0.25632 10.593908,-0.3405 4.21176,-0.10029 8.43731,0 12.65119,0 0.48258,0 2.57697,0.25981 2.93128,-0.0945 0.86342,-2.83162 0.36789,-5.8379 0.48407,-8.76239 0.21739,-5.47232 0.0363,1.62343 0.42275,-4.21045 0.0807,-1.21818 0,-2.4417 0,-3.66254 0,-1.80741 -0.0466,-3.60729 -0.42102,-5.38668 -0.27506,-1.30709 -0.8009,-2.55323 -1.07139,-3.86128 -0.47654,-2.30453 -0.57142,-4.75455 -0.95796,-7.045259 -0.2727,-1.61608 -0.0529,-3.281189 -0.18899,-4.913691 -0.10258,-1.230928 -0.22624,-2.376866 -0.37797,-3.590774 -0.25236,-2.018866 -0.57074,-4.109301 -0.57074,-6.156491 0,-0.547857 -0.28348,-1.015848 -0.28348,-1.509546 0,-0.32189 -0.0933,-0.59996 -0.0933,-0.92679 0,-0.101707 0,-0.406829 0,-0.305122 0,0.759689 0.0992,0.327744 -1.32954,0.0018"
       id="path162" />
    <path
       style="fill:none;stroke:#000000;stroke-width:0.264583px;stroke-linecap:butt;stroke-linejoin:miter;stroke-opacity:1"
       d="m 12.098964,20.288728 c 1.060474,1.143021 2.488419,1.437126 3.843059,2.047216 0.214305,0.09652 0.394055,0.260345 0.609084,0.355229 0.16563,0.07308 0.360077,0.06669 0.523521,0.144542 0.37741,0.179761 0.689988,0.474806 1.057079,0.674794 1.138529,0.620254 2.217375,1.302975 3.251224,2.090076 0.668909,0.509262 1.21271,1.156009 1.935975,1.60664 0.320706,0.199816 0.695071,0.323564 1.015153,0.525137 0.886314,0.558157 1.843683,0.96942 2.747616,1.500595 1.202851,0.706826 2.276038,1.615654 3.46025,2.34533 0.315238,0.194238 0.652772,0.312944 0.980874,0.478141 0.459507,0.231363 0.881927,0.53335 1.332021,0.780873 0.614076,0.337701 1.303401,0.54768 1.93699,0.836017 0.511681,0.23286 0.977181,0.62778 1.431097,0.953119 0.116216,0.0833 0.04557,-0.02733 0.23386,0.06682 0.335137,0.167566 0.604652,0.436267 0.936689,0.602285 0.552045,0.276024 0.886346,0.455329 1.122428,0.691419"
       id="path164" />
    <path
       style="fill:none;stroke:#000000;stroke-width:0.264583px;stroke-linecap:butt;stroke-linejoin:miter;stroke-opacity:1"
       d="m 46.820531,42.771175 c 0.103219,0.0361 0.746328,0.30434 0.746328,0.47864"
       id="path166" />
    <path
       style="fill:none;stroke:#000000;stroke-width:0.264583px;stroke-linecap:butt;stroke-linejoin:miter;stroke-opacity:1"
       d="m 65.113679,44.530525 c 0.606751,-0.16939 0.929434,-0.75829 1.414576,-1.08172 0.512951,-0.34197 1.002832,-0.69067 1.234874,-1.2664 0.0348,-0.0864 0.15183,-0.16638 0.19171,-0.25595"
       id="path168" />
    <path
       style="fill:none;stroke:#000000;stroke-width:0.264583px;stroke-linecap:butt;stroke-linejoin:miter;stroke-opacity:1"
       d="m 74.298529,34.551502 c 0.30074,-0.309591 0.60862,-0.612402 0.90221,-0.928777 0.79787,-0.859798 0.98719,-1.289548 2.00402,-2.057919 1.11568,-0.843065 2.28312,-1.614969 3.3877,-2.476939 0.32673,-0.254968 0.68278,-0.47856 0.97157,-0.775814 0.21644,-0.222787 0.33379,-0.525407 0.52805,-0.767773 0.12973,-0.161848 0.30062,-0.286401 0.44001,-0.440007 0.22437,-0.247261 0.40493,-0.533432 0.64008,-0.770457 0.84276,-0.849452 2.01901,-1.592619 2.9608,-2.318586 0.3336,-0.257153 0.57362,-0.614013 0.83093,-0.937217 0.12044,-0.151284 0.31193,-0.257109 0.41903,-0.417563 0.21533,-0.322601 0.0246,-0.124846 0.13363,-0.23386"
       id="path170" />
    <path
       style="fill:none;stroke:#000000;stroke-width:0.264583px;stroke-linecap:butt;stroke-linejoin:miter;stroke-opacity:1"
       d="m 89.910359,72.845065 c -0.91931,-1.0764 -2.04367,-1.97257 -2.95979,-3.05842 -0.93575,-1.10911 -1.6148,-2.45426 -2.4728,-3.62439 -0.33718,-0.45984 -0.71456,-0.88952 -1.04682,-1.35293 -0.58664,-0.8182 -1.05794,-1.69333 -1.6011,-2.53508 -0.45452,-0.7044 -0.824,-1.09221 -1.33631,-1.78257 -1.74297,-2.3487 0.48895,0.64798 -0.80897,-1.33454 -0.23871,-0.36462 -0.5528,-0.6757 -0.79425,-1.03851 -0.52897,-0.79484 -0.96953,-1.70435 -1.54789,-2.45355 -0.67689,-0.87682 -1.38584,-1.73747 -2.11258,-2.56791 -0.392,-0.44793 -0.89273,-0.72773 -1.3094,-1.14217 -0.25114,-0.2498 -0.42778,-0.59311 -0.64946,-0.86438 -0.0688,-0.0842 -0.15385,-0.15384 -0.23077,-0.23076 -0.15241,-0.2021 -0.3077,-0.40206 -0.45723,-0.6063 -0.33543,-0.45818 -0.53755,-1.00587 -0.8228,-1.49417 -0.31176,-0.5337 -0.77654,-0.96234 -1.12727,-1.46745 -0.23007,-0.33133 -0.3895,-0.68488 -0.66452,-0.98658 -0.17719,-0.19437 -0.39588,-0.38173 -0.54133,-0.61001 -0.58766,-0.92231 -1.17804,-1.83685 -2.0453,-2.48409"
       id="path176" />
    <path
       style="fill:none;stroke:#000000;stroke-width:0.264583px;stroke-linecap:butt;stroke-linejoin:miter;stroke-opacity:1"
       d="m 13.653589,73.886095 c 1.224286,-1.70129 2.43839,-3.40786 3.695801,-5.08441 0.296717,-0.39562 0.558392,-0.81759 0.868624,-1.20271 1.742914,-2.16362 0.421021,-0.23002 2.000528,-2.39904 1.059122,-1.45441 2.042829,-2.96548 3.137649,-4.39484 1.465051,-1.91272 -0.01926,0.0289 1.541057,-1.72467 0.04952,-0.0557 1.143358,-1.45784 1.239227,-1.59376 0.345561,-0.48996 0.596262,-1.04799 0.963853,-1.52323 0.218895,-0.283 0.421957,-0.58406 0.685972,-0.82551 0.142827,-0.13062 0.345175,-0.17659 0.508018,-0.2812 0.483418,-0.31057 0.63686,-0.44651 0.996583,-0.89816 0.647774,-0.81332 1.04476,-1.74399 1.531784,-2.65094 0.09819,-0.18286 0.240972,-0.33989 0.334549,-0.52515 0.136705,-0.27064 0.218856,-0.56649 0.353963,-0.83794 0.326945,-0.65686 1.094724,-1.56269 1.62011,-2.11864 0.586036,-0.62012 1.370229,-1.0125 1.949709,-1.63909 0.299804,-0.32418 0.499472,-0.67905 0.856644,-0.96024 0.334356,-0.26323 0.687848,-0.5431 1.038188,-0.78643 0.259347,-0.18014 0.57622,-0.30753 0.805283,-0.53659 0.08293,-0.0829 0.292997,-0.23717 0.35107,-0.35107 0.0854,-0.1675 0.164661,-0.39586 0.306867,-0.53806"
       id="path180" />
    <path
       style="fill:#fff6d5;stroke-width:0.357143"
       d="m 50.682093,272.52618 -1.042003,-5.266 -0.06554,-20.53571 c -0.07162,-22.44318 0.03126,-24.52895 1.858573,-37.67857 3.360236,-24.18078 3.145353,-22.00483 2.715722,-27.5 -0.215004,-2.75 -0.297212,-6.92866 -0.182682,-9.28592 0.156645,-3.2241 0.01865,-5.8785 -0.55701,-10.71428 -0.420885,-3.53561 -1.412668,-13.17837 -2.203963,-21.42837 -0.791295,-8.25 -1.684891,-16.52679 -1.985768,-18.39286 -0.65076,-4.03609 -1.179309,-13.83429 -1.213728,-22.500001 -0.0236,-5.942538 -0.365257,-12.581775 -0.92682,-18.010544 l -0.256001,-2.474829 1.038031,0.732598 c 1.540895,1.087498 4.293342,2.418554 8.31179,4.019498 1.970119,0.784892 4.353766,1.812479 5.296994,2.283527 0.943229,0.471047 2.357819,1.175275 3.143533,1.56495 5.259451,2.608425 14.974891,9.109069 19.107143,12.784671 1.473214,1.31042 3.321428,2.74481 4.107143,3.18754 1.412821,0.79608 5.040921,2.79527 12.321433,6.78945 2.0625,1.13151 6.08036,3.70855 8.92857,5.72674 2.84821,2.0182 6.38393,4.27045 7.85714,5.005 1.47322,0.73456 3.73662,1.96125 5.02978,2.72597 1.29316,0.76473 4.18602,2.19392 6.42857,3.17599 2.24255,0.98207 4.9326,2.38591 5.97787,3.11965 1.04528,0.73374 2.49171,1.66878 3.21429,2.07785 0.72258,0.40908 2.74885,1.57757 4.50284,2.59666 1.9746,1.14726 3.31602,1.72592 3.52245,1.51948 0.49357,-0.49356 0.0507,-0.99284 -1.81925,-2.0508 -0.92289,-0.52215 -2.65347,-1.5687 -3.84573,-2.32567 -1.19227,-0.75697 -2.26939,-1.3763 -2.39361,-1.3763 -0.12421,0 -1.26933,-0.72946 -2.54471,-1.62101 -1.27538,-0.89155 -4.0437,-2.34364 -6.15182,-3.22687 -2.10813,-0.88322 -4.74295,-2.15865 -5.85517,-2.83429 -1.11222,-0.67564 -3.2132,-1.81372 -4.66886,-2.52908 -1.45565,-0.71536 -4.89665,-2.87189 -7.64665,-4.79229 -6.27033,-4.37875 -8.21393,-5.56231 -15.535715,-9.46047 -7.056718,-3.75703 -7.6355,-4.13192 -11.071428,-7.171196 -2.865785,-2.53495 -7.652675,-5.965235 -11.428572,-8.189716 -1.276785,-0.752188 -3.526785,-2.127949 -5,-3.057246 -1.473214,-0.929298 -3.080357,-1.797043 -3.571428,-1.928323 -0.491072,-0.13128 -1.630486,-0.62542 -2.532033,-1.098087 -0.901546,-0.472668 -3.458451,-1.590551 -5.68201,-2.484183 -2.223559,-0.893634 -5.000448,-2.206507 -6.170863,-2.917497 -1.839952,-1.117712 -2.041141,-1.341334 -1.486183,-1.651904 0.420793,-0.235488 6.431604,-0.283211 17.452896,-0.138567 21.416518,0.281071 30.385568,0.837494 70.242386,4.357709 21.68931,1.915633 35.74836,3.010924 48.35438,3.767116 9.69022,0.581283 50.74098,0.76284 97.5,0.431218 22.98214,-0.162993 41.86607,-0.203758 41.96429,-0.09059 0.0982,0.113169 0.82143,0.398292 1.60714,0.633605 2.55057,0.763871 2.64667,0.950673 1.24587,2.421735 -0.68523,0.719601 -3.33516,2.881185 -5.88873,4.803521 -5.169,3.891238 -6.527,5.147984 -9.64285,8.923855 -3.70299,4.48738 -5.53018,6.09642 -13.2886,11.7021 -4.16905,3.01226 -8.49603,6.45203 -9.6591,7.67857 -1.15879,1.22204 -3.36036,3.53991 -4.89238,5.15083 -1.85704,1.95269 -2.71472,3.11334 -2.5732,3.48215 0.11676,0.30425 0.35358,0.55319 0.52627,0.55319 0.33658,0 2.68651,-2.44876 6.60717,-6.88506 1.38528,-1.56746 4.06113,-3.94818 6.20887,-5.52407 12.0941,-8.87393 14.97874,-11.1337 15.60045,-12.22111 1.61932,-2.83229 6.80574,-7.92815 12.06352,-11.852863 2.93141,-2.188179 5.7231,-4.477323 6.20375,-5.086987 l 0.8739,-1.108479 0.004,1.198448 c 0.002,0.659147 0.22831,2.105576 0.50251,3.214286 0.27421,1.108711 0.59478,4.105123 0.71239,6.658695 0.1176,2.55357 0.62081,8.01786 1.11824,12.14286 2.30485,19.11341 2.66866,23.40846 2.66995,31.52021 3.6e-4,2.99682 0.23594,7.01468 0.52325,8.92857 0.2873,1.91388 0.93799,7.07951 1.44596,11.47917 1.36819,11.85014 1.90575,14.63981 4.32499,22.4442 2.83414,9.14286 3.49639,16.02207 3.29218,34.19776 -0.0951,8.46822 -0.27093,12.75499 -0.53655,13.08384 -0.81537,1.00949 -0.94443,3.38213 -1.00766,18.52482 -0.054,12.9292 -0.16655,16.06854 -0.67092,18.71152 -0.33332,1.7467 -0.72177,3.35384 -0.86321,3.57143 -0.15695,0.24145 -2.56312,-1.97033 -6.17463,-5.67581 -5.31089,-5.44907 -6.35011,-6.72948 -10.13817,-12.49104 -2.32139,-3.53079 -5.11166,-7.53627 -6.20061,-8.90106 -1.08894,-1.3648 -3.49627,-4.90432 -5.34961,-7.86562 -1.85334,-2.96129 -4.59774,-6.99153 -6.09866,-8.95608 -1.50093,-1.96455 -2.9905,-4.13441 -3.31017,-4.82191 -0.31967,-0.6875 -1.60428,-2.63683 -2.85469,-4.33185 -1.25042,-1.69501 -3.21685,-4.6486 -4.36985,-6.56352 -3.38471,-5.62137 -9.40943,-12.85046 -14.88005,-17.85463 -2.68997,-2.46062 -5.921,-6.70728 -7.88435,-10.36269 -0.90557,-1.686 -2.46378,-4.08534 -3.46269,-5.33188 -0.99891,-1.24654 -2.3682,-3.12699 -3.04287,-4.17879 -0.67468,-1.0518 -1.58669,-2.23378 -2.0267,-2.62664 -0.44001,-0.39286 -1.69822,-2.08036 -2.79604,-3.75 -1.09781,-1.66964 -3.04724,-4.10866 -4.33205,-5.42004 l -2.33603,-2.38433 1.19494,-1.8493 c 0.91416,-1.41475 1.09572,-1.94546 0.77267,-2.25853 -0.31975,-0.30987 -0.56653,-0.19972 -1.01637,0.45363 -1.39477,2.02576 -8.71132,8.60143 -9.57055,8.60143 -0.61786,0 -0.61176,-0.27325 0.0479,-2.14286 0.29464,-0.83511 0.53571,-2.22197 0.53571,-3.08191 0,-0.88121 0.31172,-2.14513 0.71429,-2.89624 0.39286,-0.73299 0.71428,-1.67459 0.71428,-2.09246 0,-0.41786 0.44672,-1.32186 0.9927,-2.00889 l 0.99269,-1.24914 1.33623,1.15507 c 1.45049,1.25385 3.93836,2.08656 7.92838,2.65368 1.375,0.19544 3.3202,0.51231 4.32266,0.70416 2.20269,0.42155 15.3198,0.59078 17.8202,0.22991 3.58224,-0.517 3.89164,-0.72381 6.20485,-4.14736 3.33549,-4.93651 4.07457,-8.80704 2.50006,-13.09271 -1.03805,-2.82547 -2.12289,-4.17402 -3.76186,-4.67634 -1.31178,-0.40204 -2.33221,-1.02239 -7.84835,-4.7712 -2.33364,-1.58596 -2.68227,-1.70409 -7.23137,-2.45035 -3.75764,-0.61643 -5.55208,-0.73649 -8.39286,-0.56154 -11.30392,0.69615 -12.82116,0.6848 -15.96337,-0.1194 -3.12059,-0.79867 -6.12876,-2.50524 -7.50902,-4.25995 l -0.71574,-0.90992 0.7873,-0.59386 c 0.89763,-0.67708 1.00915,-0.43955 -1.97933,-4.21562 -1.59879,-2.02014 -3.14157,-3.33262 -8.44848,-7.18736 -0.9465,-0.6875 -2.05209,-1.68151 -2.45687,-2.20891 -0.96496,-1.25727 -1.85681,-3.78143 -1.39095,-3.93671 0.19471,-0.0649 0.24229,-0.40914 0.10575,-0.76497 -0.17666,-0.46037 -0.46581,-0.58131 -1.00258,-0.41934 -0.41488,0.1252 -2.42635,0.47201 -4.46993,0.77069 -2.95687,0.43216 -4.29943,0.46449 -6.57465,0.15829 -1.57246,-0.21162 -4.44062,-0.38476 -6.37367,-0.38476 -2.105,0 -3.51464,-0.14325 -3.51464,-0.35715 0,-0.19643 -0.7275,-0.35714 -1.61667,-0.35714 -1.4235,0 -1.88828,0.22403 -3.88992,1.875 -1.25028,1.03125 -3.61378,2.58922 -5.25221,3.46216 -1.63843,0.87294 -3.65703,2.21218 -4.48578,2.9761 -1.87056,1.72422 -3.32569,4.55947 -3.33034,6.489 -0.005,1.98726 -1.38824,4.78724 -3.06492,6.20313 -0.76773,0.64832 -1.87802,1.62586 -2.46731,2.17231 -1.61384,1.49654 -6.77702,4.31277 -8.77851,4.78821 -1.07833,0.25615 -1.70535,0.58264 -1.6077,0.83711 0.30124,0.78503 -1.51547,0.85409 -3.35838,0.12768 -0.99966,-0.39403 -2.57501,-0.71011 -3.50077,-0.70241 -2.75933,0.023 -7.5056,1.22843 -11.58816,2.94321 -5.8818,2.47052 -7.41025,3.43827 -8.90245,5.6367 -1.99654,2.94143 -2.57078,5.28581 -2.37147,9.68164 0.18695,4.12333 0.61858,5.3121 2.76575,7.6173 0.73185,0.78572 1.65557,1.8967 2.0527,2.46886 l 0.72207,1.04028 -1.07323,1.59021 c -0.59027,0.87462 -1.69359,2.01363 -2.45182,2.53115 -4.24422,2.89678 -6.72852,4.92059 -8.17804,6.66215 -0.89493,1.07524 -3.14493,3.1577 -5,4.62768 -4.31407,3.41854 -8.09718,7.94259 -10.31032,12.32967 -5.72368,11.34596 -8.20414,15.10869 -11.0285,16.72966 -2.43713,1.39874 -4.35952,3.4829 -6.68003,7.2422 -2.185853,3.54116 -8.510107,11.674 -9.319418,11.98456 -0.583839,0.22404 -5.041282,6.13694 -10.586761,14.04358 -4.590435,6.54496 -6.382899,8.88702 -10.156031,13.27001 -1.410945,1.63899 -3.431658,4.18535 -4.490472,5.65856 -4.767188,6.63298 -13.580318,18.77513 -13.802371,19.016 -0.134868,0.14629 -0.714116,-2.10371 -1.287217,-5 z"
       id="path184"
       transform="scale(0.26458333)" />
    <path
       style="fill:#fff6d5;stroke-width:0.357143"
       d="m 51.934653,280.11299 c 0,-0.64103 18.69295,-25.92255 20.594145,-27.85281 1.781753,-1.80899 3.565189,-4.16484 9.057256,-11.96428 5.603959,-7.95835 9.24027,-12.74764 10.710977,-14.10714 1.887182,-1.7445 6.119122,-7.20443 8.996589,-11.60715 2.77666,-4.2485 3.81183,-5.39837 6.07928,-6.75294 3.21435,-1.92025 5.9913,-6.00529 11.38322,-16.74531 2.56331,-5.10579 5.78478,-9.01264 10.68925,-12.96344 1.86018,-1.49847 4.0922,-3.57116 4.96006,-4.60598 1.36634,-1.62922 4.1507,-3.87476 8.526,-6.87608 1.08594,-0.74492 2.81391,-3.3114 2.64684,-3.93125 -0.16566,-0.61466 0.68959,-0.17698 2.44259,1.25 3.89111,3.16746 5.52076,3.85271 10.40682,4.37596 1.93136,0.20683 2.91983,0.0863 5.86148,-0.71503 4.21682,-1.14863 4.03649,-1.06279 8.52128,-4.05631 3.60653,-2.4073 5.68932,-4.19673 6.64293,-5.70727 0.48655,-0.77069 0.62803,-0.0988 1.84256,8.75 0.72356,5.27164 1.56189,10.87051 1.86297,12.44194 0.30108,1.57143 0.55057,4.80073 0.55444,7.17623 0.009,5.31955 0.3092,6.29244 4.56092,14.7639 2.99148,5.96046 3.26306,6.36461 6.37083,9.48096 1.78538,1.79032 3.80416,4.13154 4.48618,5.20273 2.20938,3.47007 8.03076,14.04519 8.64121,15.69761 0.74457,2.01549 2.01399,8.22084 2.03545,9.95003 0.009,0.71498 0.37049,1.97331 0.80358,2.79628 0.8305,1.57816 5.89602,7.61083 6.39067,7.61083 0.15929,0 0.28962,0.23825 0.28962,0.52944 0,0.2912 0.71525,1.27592 1.58944,2.18828 l 1.58945,1.65884 6.17841,-0.17564 c 9.15248,-0.26018 13.00255,-1.3213 15.35022,-4.23068 0.65194,-0.80792 1.64455,-2.01634 2.20581,-2.6854 0.77256,-0.92093 0.96503,-1.43738 0.79224,-2.12583 -0.16095,-0.64126 0.0859,-1.50949 0.83739,-2.9449 1.88051,-3.59212 2.57554,-6.31982 2.93019,-11.49982 0.18155,-2.65179 0.41965,-5.54656 0.5291,-6.43282 0.1846,-1.4948 0.0525,-1.84365 -1.82547,-4.82143 -2.81741,-4.46735 -3.67209,-6.23528 -5.00239,-10.34757 -1.60753,-4.96929 -1.73044,-6.00974 -1.05538,-8.9339 0.31743,-1.375 0.82401,-4.26786 1.12575,-6.42857 0.45318,-3.24526 0.47277,-4.33235 0.1126,-6.25 -0.55539,-2.95711 -0.30996,-5.59063 0.81752,-8.77233 1.10731,-3.12473 2.17011,-9.19278 1.90372,-10.86926 -0.10935,-0.6882 -0.0457,-1.49234 0.14153,-1.78698 0.2739,-0.43112 0.34142,-0.37882 0.34583,0.26786 0.003,0.44196 0.17416,0.80357 0.38034,0.80357 0.68693,0 2.29291,-0.99184 3.19655,-1.97416 0.90211,-0.98065 4.44812,-3.74013 4.80618,-3.74013 0.1066,0 0.19382,0.14646 0.19382,0.32546 0,0.179 0.84375,1.19162 1.875,2.25027 1.03125,1.05865 2.74726,3.20237 3.81336,4.76383 1.0661,1.56146 2.46663,3.43582 3.11229,4.16525 0.64566,0.72943 1.60509,2.01515 2.13207,2.85714 0.52698,0.842 1.8914,2.69645 3.03203,4.12099 1.14064,1.42455 2.80557,3.99598 3.69986,5.71429 2.22604,4.27716 4.85664,7.45281 10.87164,13.1242 3.11097,2.93327 8.8679,10.29261 12.10468,15.47396 1.66838,2.6707 3.65312,5.6398 4.41053,6.598 0.75741,0.9582 1.37711,1.96071 1.37711,2.22781 0,0.2671 1.73135,2.78392 3.84744,5.59293 2.11609,2.80902 5.0837,7.11623 6.59469,9.57159 1.51099,2.45535 3.6311,5.58928 4.71136,6.96428 1.08026,1.375 3.53676,4.87967 5.45888,7.78816 5.27442,7.98105 6.57523,9.61807 12.15098,15.2915 4.64115,4.72246 5.04989,5.23832 4.26886,5.38763 -0.47506,0.0908 -5.50611,0.0168 -11.18011,-0.16447 -13.51552,-0.43179 -49.34751,-0.0877 -67.81638,0.65125 -9.98602,0.39954 -19.92439,0.54544 -31.25,0.45875 -9.13393,-0.0699 -23.35714,-0.11385 -31.60714,-0.0976 -13.68789,0.0269 -15.46352,0.10011 -20.2988,0.83712 l -5.29879,0.80766 -38.62978,-0.40817 c -38.624652,-0.40813 -56.328882,-0.29908 -62.005527,0.3819 -1.660234,0.19917 -4.950845,0.83396 -7.312469,1.41065 -3.087991,0.75405 -5.17399,1.04852 -7.427821,1.04852 -1.723678,0 -3.13396,-0.0823 -3.13396,-0.18291 z M 180.27225,162.95926 c -0.11627,-0.30301 -0.85624,-0.8799 -1.64438,-1.28198 -1.16266,-0.59315 -1.49017,-0.6408 -1.7362,-0.25264 -0.44855,0.70769 -0.40266,0.78355 0.85428,1.41222 1.56905,0.78477 2.80343,0.84458 2.5263,0.1224 z"
       id="path186"
       transform="scale(0.26458333)" />
    <path
       style="fill:#000000;stroke-width:0.0892857"
       d="m 188.6781,164.38825 c -0.3398,-0.32805 -0.80504,-0.87046 -1.03387,-1.20535 -0.22882,-0.3349 -0.44565,-0.60891 -0.48184,-0.60891 -0.0362,0 -0.18982,-0.16863 -0.34139,-0.37473 -0.23834,-0.3241 -0.27558,-0.44991 -0.27558,-0.93112 0,-0.38676 0.0428,-0.59917 0.14031,-0.6967 0.19074,-0.19074 1.02485,-0.17924 1.60748,0.0222 0.69041,0.23868 1.79905,0.90675 2.21226,1.33313 0.20338,0.20986 0.41537,0.36407 0.47108,0.34269 0.12973,-0.0498 0.20948,0.43005 0.21075,1.26793 7.1e-4,0.47056 -0.0472,0.7454 -0.17307,0.99205 -0.19016,0.37274 -0.41537,0.45233 -1.28552,0.45431 -0.41317,9.3e-4 -0.46081,-0.0261 -1.05061,-0.59548 z"
       id="path188"
       transform="scale(0.26458333)" />
    <path
       style="fill:#000000;stroke-width:0.0892857"
       d="m 245.29265,161.27601 c -0.24,-0.28918 0.28053,-1.61785 1.0136,-2.58726 0.52706,-0.69697 0.71752,-0.81574 1.00553,-0.62703 0.28411,0.18616 0.27411,0.27414 -0.10222,0.8991 -0.60823,1.01006 -1.30314,1.90088 -1.56861,2.01084 -0.19549,0.081 -0.24754,0.1498 -0.20786,0.27482 0.0643,0.20262 0.0123,0.21355 -0.14044,0.0295 z"
       id="path192"
       transform="scale(0.26458333)" />
    <path
       style="fill:none;stroke:#552200;stroke-width:0.264583px;stroke-linecap:butt;stroke-linejoin:miter;stroke-opacity:1"
       d="m 66.429048,39.257888 c -0.661022,0.09912 -0.296037,-0.140925 -0.537779,-0.261803"
       id="path1051" />
    <path
       style="fill:#552200;stroke:#552200;stroke-width:0.264583px;stroke-linecap:butt;stroke-linejoin:miter;stroke-opacity:1"
       d="m 57.539254,63.35551 c -0.0079,-0.226816 -0.0041,-0.454403 -0.0041,-0.681498 0,-0.07005 0.0064,-0.14234 -0.0096,-0.211111 -0.01312,-0.05652 -0.02151,-0.116358 -0.04444,-0.169883 -0.01617,-0.0377 -0.04357,-0.0633 -0.05374,-0.102857 -0.01357,-0.05273 0.0027,-0.109053 0.0027,-0.158541"
       id="path1061" />
    <path
       style="fill:#803300;stroke:#552200;stroke-width:0.25"
       d="m 220.52287,255.06751 c -0.85163,-0.53906 -2.07223,-1.99758 -2.70198,-3.22865 -0.22651,-0.44279 -0.63568,-0.92488 -0.90925,-1.07129 -0.27358,-0.14641 -0.49742,-0.38866 -0.49742,-0.53833 0,-0.14967 -0.98437,-1.30385 -2.1875,-2.56485 -2.79983,-2.93451 -3.52554,-4.25882 -3.81261,-6.95743 -0.33729,-3.17072 -1.40674,-8.13283 -2.14123,-9.93503 -0.77518,-1.90203 -1.69345,-3.61601 -5.55715,-10.37264 -3.75213,-6.56152 -3.88134,-6.73918 -7.54922,-10.38034 l -3.14793,-3.125 -3.28095,-6.625 c -4.38537,-8.85507 -4.39969,-8.90325 -4.45916,-15 -0.0274,-2.8133 -0.16738,-5.24435 -0.3309,-5.74835 -0.15584,-0.48034 -0.28335,-1.30336 -0.28335,-1.82893 0,-0.52557 -0.11093,-1.16287 -0.24652,-1.41622 -0.13559,-0.25335 -0.63591,-3.31158 -1.11182,-6.79606 -1.25367,-9.17898 -1.3572,-10.06524 -1.50899,-12.91817 -0.10127,-1.90335 -0.24342,-2.68873 -0.5404,-2.98571 -0.3202,-0.3202 -0.37197,-0.71407 -0.25202,-1.91727 0.35338,-3.54463 0.67405,-5.63211 1.14612,-7.46114 0.68732,-2.66299 3.53261,-8.12828 5.15963,-9.91073 0.69904,-0.76583 1.84082,-2.23617 2.53729,-3.26742 0.69646,-1.03125 1.72764,-2.3197 2.29151,-2.86323 1.07556,-1.03678 1.24912,-1.38677 0.6877,-1.38677 -0.40178,0 -2.74217,2.63717 -3.75288,4.22877 -0.39346,0.6196 -1.3649,1.86222 -2.15874,2.76139 -0.94905,1.07496 -2.04036,2.79068 -3.18659,5.00984 -1.88178,3.64325 -2.41857,5.47884 -3.18273,10.88369 -0.34872,2.46651 -0.35015,2.89015 -0.0135,4 0.51722,1.70511 0.48391,2.063 -0.30042,3.22788 -1.25822,1.86868 -2.21447,2.86295 -3.95915,4.11655 -0.95342,0.68505 -2.01473,1.45205 -2.35848,1.70444 -3.14956,2.31248 -4.81916,3.14786 -8.18472,4.0952 -3.79013,1.06685 -4.63383,1.1312 -7.94028,0.60563 -3.9384,-0.62602 -5.02552,-1.1012 -7.375,-3.22363 -0.75625,-0.68317 -1.96242,-1.61875 -2.68038,-2.07907 -0.71796,-0.46031 -1.42781,-1.0657 -1.57744,-1.34529 -0.14964,-0.2796 -1.04467,-1.35592 -1.98896,-2.39181 -2.53253,-2.7782 -2.79847,-3.47664 -2.98553,-7.84082 -0.14773,-3.44661 -0.12419,-3.71328 0.48556,-5.5 1.56861,-4.59644 3.5765,-6.35864 10.12174,-8.88327 1.5125,-0.58341 3.33811,-1.32022 4.05692,-1.63737 0.7188,-0.31715 1.38168,-0.50186 1.47307,-0.41047 0.0914,0.0914 -0.35811,0.77982 -0.99888,1.52986 -0.87804,1.02775 -1.6282,1.58354 -3.04512,2.25609 -1.03403,0.49082 -2.07103,0.89239 -2.30444,0.89239 -0.8607,0 -3.09446,1.36978 -3.96374,2.43063 -1.41871,1.73134 -2.39493,4.51484 -2.53316,7.22283 -0.17346,3.39802 0.26012,5.49998 1.52218,7.37949 2.46666,3.67345 4.1989,5.00758 7.06462,5.44095 0.9743,0.14735 2.31524,0.50844 2.97987,0.80244 1.12903,0.49943 1.48896,0.52529 5.47855,0.39373 2.34858,-0.0774 4.60763,-0.18999 5.02013,-0.2501 3.13141,-0.45632 4.20801,-0.70157 5.68757,-1.29562 2.03605,-0.81749 2.59367,-1.46996 4.37941,-5.12435 1.72259,-3.52516 2.20088,-4.25 2.80435,-4.25 0.28104,0 0.50367,-0.16575 0.50367,-0.375 0,-0.47331 -0.73267,-0.48432 -1.39422,-0.0209 -0.27801,0.19473 -1.32946,1.98702 -2.33656,3.98287 -1.00709,1.99585 -2.12654,3.89757 -2.48765,4.22606 -1.73625,1.57938 -6.83702,2.56294 -13.28157,2.56103 -2.94819,-0.001 -3.51828,-0.0697 -4.50799,-0.54392 -0.62315,-0.29861 -1.86065,-0.62212 -2.75,-0.71891 -2.44791,-0.26643 -3.82907,-1.30922 -6.32028,-4.77192 -1.40009,-1.94606 -1.67173,-2.97864 -1.67173,-6.35476 0,-2.66076 0.0719,-3.13937 0.72732,-4.84145 1.2185,-3.1644 2.73233,-4.60042 5.77268,-5.47597 2.31657,-0.66711 4.1782,-1.83493 5.39412,-3.38379 0.60807,-0.77456 1.10564,-1.5264 1.10573,-1.67077 2.5e-4,-0.41402 2.69334,-0.86304 5.1402,-0.85703 1.65167,0.004 2.50758,0.12927 3.27955,0.47977 1.77882,0.80762 3.39446,0.76323 4.70983,-0.1294 0.52206,-0.35428 1.49595,-0.85965 2.16421,-1.12305 0.66825,-0.26341 2.23209,-1.09854 3.47518,-1.85586 1.2431,-0.75732 2.37619,-1.37695 2.51798,-1.37695 0.14179,0 0.73751,-0.47812 1.32382,-1.0625 0.5863,-0.58437 1.75309,-1.59646 2.59287,-2.24909 2.00996,-1.56205 3.29234,-4.06503 3.54839,-6.92586 0.31255,-3.4922 2.35903,-6.17855 6.27744,-8.24016 2.85824,-1.50383 5.05975,-2.94421 6.84568,-4.47893 1.59523,-1.37084 2.37458,-1.57893 3.79623,-1.01359 0.38708,0.15392 2.39127,0.30934 4.45377,0.34537 2.0625,0.036 5.00649,0.2049 6.54219,0.37528 2.7785,0.30826 4.00825,0.23999 8.83281,-0.4904 1.61154,-0.24397 1.80773,-0.0924 2.38178,1.84068 0.58362,1.96526 1.60215,3.27456 3.66363,4.70951 4.46025,3.10469 7.06644,5.37048 8.96197,7.79143 l 1.96207,2.50594 -0.71218,0.63366 c -0.3917,0.34852 -1.01631,0.89711 -1.38801,1.2191 -0.59348,0.51411 -0.65634,0.70728 -0.51592,1.58544 0.23265,1.4549 0.90522,2.61995 2.57131,4.45412 0.81184,0.89375 1.72798,1.98628 2.03586,2.42783 0.72035,1.03314 1.53949,3.41561 1.53949,4.47761 0,0.56258 0.2399,1.1004 0.75,1.68137 0.4125,0.46981 0.75,1.00194 0.75,1.18252 0,0.18057 0.26296,0.61572 0.58435,0.96699 0.32139,0.35128 0.84048,1.25188 1.15353,2.00134 0.31305,0.74946 0.85681,1.81821 1.20837,2.375 0.43777,0.69334 0.81351,1.94136 1.19239,3.96052 0.35561,1.89518 0.71985,3.136 1.01978,3.47403 0.25662,0.28921 0.35337,0.56589 0.215,0.61485 -0.65313,0.23106 -4.64317,3.25411 -5.82396,4.41252 -2.16098,2.12003 -4.14762,6.67542 -2.91119,6.67542 0.21354,0 0.80216,-0.28125 1.30803,-0.625 0.50587,-0.34375 1.06208,-0.625 1.23602,-0.625 0.17393,0 0.77717,-0.41642 1.34053,-0.92537 l 1.02428,-0.92538 -0.10889,1.61288 c -0.0599,0.88708 -0.40562,2.40037 -0.76829,3.36287 -0.50817,1.34864 -0.66083,2.20871 -0.66562,3.75 -0.0109,3.48995 -1.19493,9.14475 -2.64,12.608 -0.61112,1.46459 -0.65575,1.78787 -0.50052,3.625 0.0937,1.10935 0.33816,2.60314 0.54315,3.31953 0.3103,1.08437 0.32564,1.71246 0.0916,3.75 -0.15463,1.34611 -0.34698,3.06622 -0.42744,3.82247 -0.0805,0.75625 -0.25535,1.44622 -0.38865,1.53327 -0.33132,0.21636 -0.92134,3.98571 -0.92746,5.92508 -0.005,1.65367 0.61444,4.4484 1.50587,6.79165 0.2877,0.75625 0.6828,1.88999 0.878,2.51942 0.50768,1.63701 3.23838,6.51657 5.43514,9.71219 0.74719,1.08695 0.75523,1.13137 0.45218,2.5 -0.52522,2.37202 -0.75937,4.5416 -0.77096,7.14339 -0.0162,3.63589 -0.98191,7.21556 -2.82325,10.46499 -0.86958,1.53456 -0.97022,1.87684 -0.8372,2.84729 0.0832,0.60667 0.0581,1.06585 -0.0557,1.02038 -0.11378,-0.0455 -0.90474,-0.89723 -1.75768,-1.89283 -1.51465,-1.76796 -2.42019,-2.32688 -3.07971,-1.90086 -0.17969,0.11607 -3.08296,0.2769 -6.45171,0.35739 -4.73037,0.11304 -6.38115,0.23864 -7.25,0.55164 -0.61875,0.2229 -2.2442,0.50984 -3.61212,0.63765 -2.03087,0.18974 -2.56308,0.32617 -2.90117,0.74368 -0.91345,1.12807 -0.766,4.61756 0.20637,4.88377 2.6132,0.71542 10.42503,1.29914 14.73104,1.10075 3.4131,-0.15725 4.19477,-0.44858 7.14981,-2.66473 2.63363,-1.9751 2.79413,-1.70993 0.70421,1.16346 -1.46453,2.01353 -2.69148,2.7811 -5.65488,3.53762 -2.6416,0.67437 -5.32633,0.96588 -10.62326,1.15349 -4.05305,0.14356 -4.43139,0.11926 -5.14135,-0.33013 z m 2.32875,-10.92813 c 1.48766,-0.44178 3.2081,-2.17094 3.44386,-3.4613 0.22784,-1.24705 -0.25734,-5.44743 -0.74888,-6.48327 -0.66208,-1.39523 -2.23173,-2.22592 -4.4713,-2.36629 -2.45541,-0.1539 -3.46889,0.14079 -3.78608,1.10087 -0.14056,0.42547 -0.38679,0.71101 -0.5625,0.65231 -0.39141,-0.13078 -0.42925,1.50197 -0.0512,2.2084 0.14372,0.26855 0.2281,1.2129 0.1875,2.09856 l -0.0738,1.6103 -1.1875,-1.42199 -1.1875,-1.42198 v -3.27349 c 0,-2.18441 0.12063,-3.64178 0.36259,-4.38051 0.19942,-0.60887 0.48501,-1.58516 0.63463,-2.16954 0.39633,-1.54786 1.09474,-1.45383 3.10716,0.41832 1.74518,1.62354 2.06142,1.75179 6.27062,2.54313 1.5125,0.28435 3.5109,0.69075 4.44089,0.90311 1.0087,0.23033 3.02595,0.39858 5,0.41702 4.32768,0.0404 5.6966,-0.35187 7.65884,-2.19488 1.69633,-1.59326 2.49327,-2.1492 3.0809,-2.1492 0.59731,0 0.56775,0.2336 -0.30563,2.41475 -0.4125,1.03017 -0.75,2.14857 -0.75,2.48533 0,0.42037 -0.1927,0.68557 -0.61479,0.84604 -0.33813,0.12856 -0.89487,0.66015 -1.2372,1.18131 -0.67563,1.02858 -2.79189,6.76203 -2.57571,6.97821 0.0729,0.0729 1.13676,-0.38231 2.36414,-1.01156 1.22739,-0.62924 2.32203,-1.14408 2.43253,-1.14408 0.1105,0 0.3466,0.19688 0.52467,0.4375 0.29356,0.3967 0.36069,0.34976 0.71981,-0.50333 0.33596,-0.79808 0.35813,-1.34103 0.14612,-3.57857 -0.25654,-2.7075 -0.38511,-3.21202 -0.75957,-2.9806 -0.57486,0.35529 -0.44501,-0.57544 0.36155,-2.59138 0.48865,-1.22133 0.88845,-2.3497 0.88845,-2.50747 0,-0.15778 -0.2623,-0.40638 -0.58289,-0.55245 -0.85122,-0.38784 -1.9862,0.17862 -3.91711,1.955 -1.74768,1.60782 -2.47736,1.94169 -5,2.28778 -1.95651,0.26842 -6.23411,-0.0566 -7.74082,-0.58824 -0.58962,-0.20803 -1.50882,-0.37824 -2.04266,-0.37824 -0.53385,0 -2.16511,-0.28223 -3.62503,-0.62719 -2.54635,-0.60167 -2.71562,-0.68388 -4.15846,-2.01969 -2.4368,-2.25605 -3.70481,-2.41902 -4.18665,-0.5381 -0.14934,0.58299 -0.49087,1.7287 -0.75896,2.54603 -0.54326,1.65629 -0.68027,6.05972 -0.23806,7.65151 0.13561,0.48815 0.7463,1.47301 1.3571,2.18857 0.61079,0.71557 1.18179,1.52554 1.26889,1.79995 0.18665,0.5881 0.87465,0.67397 0.87465,0.10917 0,-0.72698 0.42531,-0.13136 0.96696,1.35416 0.67908,1.86245 1.02228,2.14487 3.05017,2.51 0.0782,0.0141 0.71729,-0.14521 1.42027,-0.35398 z m -7.34982,-21.68293 c -0.0825,-0.44687 -0.27653,-1.0505 -0.43125,-1.3414 -0.15473,-0.2909 -0.57163,-1.0784 -0.92645,-1.75 -0.35482,-0.6716 -0.78637,-1.8961 -0.959,-2.7211 -0.17263,-0.825 -0.58345,-2.23125 -0.91293,-3.125 -0.32949,-0.89375 -0.6695,-2.01875 -0.75558,-2.5 -0.14511,-0.81126 -1.02303,-3.78105 -2.90448,-9.82521 -0.4195,-1.34762 -0.79541,-3.09137 -0.83538,-3.875 -0.04,-0.78363 -0.18834,-2.15604 -0.32974,-3.04979 -0.14139,-0.89375 -0.37861,-2.75 -0.52714,-4.125 -0.14853,-1.375 -0.44904,-3.175 -0.6678,-4 -0.21876,-0.825 -0.48489,-3.01875 -0.5914,-4.875 -0.45829,-7.98739 -1.39984,-15.1026 -2.39848,-18.125 -1.27658,-3.86361 -2.84795,-7.09735 -2.84795,-5.86084 0,0.14528 0.38075,1.1859 0.8461,2.3125 1.90207,4.60482 2.49062,7.34399 3.28379,15.283 0.20522,2.05405 0.38081,4.96799 0.39021,6.4754 0.013,2.08525 0.13222,3.03286 0.49849,3.9621 0.26478,0.67175 0.48141,1.66165 0.48141,2.19979 0,0.53815 0.11218,1.51836 0.24928,2.17825 0.27058,1.30236 0.65042,4.21946 0.9863,7.5748 0.117,1.16875 0.55029,3.19375 0.96287,4.5 1.59476,5.04908 2.50788,8.16453 2.67407,9.12352 0.0952,0.54919 0.43284,1.63791 0.75038,2.41938 0.31754,0.78147 0.77543,2.33762 1.01752,3.4581 0.26913,1.2456 0.76134,2.57061 1.26668,3.4098 0.45457,0.7549 0.89896,1.75879 0.98753,2.23087 0.0899,0.47945 0.31151,0.85833 0.50195,0.85833 0.24872,0 0.30038,-0.21974 0.191,-0.8125 z m 25.3206,-35 c -0.0867,-0.58437 -0.27716,-1.9625 -0.42323,-3.0625 -0.14606,-1.1 -0.54818,-2.7875 -0.8936,-3.75 -2.22548,-6.20118 -3.83749,-12.56753 -3.84034,-15.16677 -0.001,-1.19042 0.66554,-2.71631 2.10763,-4.82269 1.3469,-1.96736 1.95752,-2.53537 3.07272,-2.85832 1.03688,-0.30028 3.34087,-1.78899 3.17759,-2.05319 -0.16394,-0.26526 -0.80537,-0.0286 -1.73395,0.63972 -0.4125,0.2969 -1.27728,0.73686 -1.92174,0.97769 -1.25052,0.46732 -2.15255,1.37863 -3.62128,3.65856 -1.60779,2.49581 -1.84838,3.40746 -1.56302,5.92257 0.38325,3.37785 2.02465,9.63485 3.37367,12.86039 0.32387,0.77438 0.76867,2.40563 0.98845,3.625 0.82943,4.60182 0.94361,5.09204 1.186,5.09204 0.15072,0 0.18662,-0.41874 0.0911,-1.0625 z m -45.43183,-21.87982 c 0.54888,-0.20304 0.51249,-0.26771 -0.85282,-1.51552 -2.0954,-1.91508 -4.1727,-3.46278 -5.80586,-4.32567 -1.23909,-0.65469 -1.64604,-0.74791 -2.88389,-0.66065 -2.16081,0.15234 -2.24284,0.41775 -0.6593,2.13333 0.74279,0.80471 1.74427,1.98877 2.22552,2.63123 0.48125,0.64247 1.325,1.40398 1.875,1.69226 0.87195,0.45703 1.28991,0.50704 3.26401,0.39063 1.2452,-0.0734 2.52201,-0.22896 2.83734,-0.34561 z m 35.80846,-25.78559 c 0.57276,-0.46379 0.59019,-0.58863 0.59019,-4.2254 v -3.74748 l -0.82033,-1.0871 c -0.45118,-0.59791 -0.94868,-1.36836 -1.10556,-1.71211 -0.15687,-0.34375 -0.7005,-1.53594 -1.20805,-2.64931 -0.50756,-1.11337 -1.00032,-2.57587 -1.09504,-3.25 -0.0947,-0.67413 -0.34922,-2.0743 -0.56558,-3.1115 l -0.39337,-1.88581 -1.28103,-0.30238 c -0.70457,-0.1663 -1.56229,-0.52854 -1.90604,-0.80496 -1.43788,-1.15625 -2.00444,-1.30372 -3.62431,-0.94337 -1.79531,0.39938 -2.19975,0.96262 -1.89021,2.63244 0.29384,1.58517 0.11058,1.67401 -3.3096,1.6045 -1.9049,-0.0387 -1.9588,-0.0572 -2.375,-0.81423 -0.23423,-0.42604 -0.62959,-1.0431 -0.87857,-1.37125 l -0.4527,-0.59663 -0.73601,0.54416 -0.73602,0.54416 -0.68629,-0.54684 c -2.20758,-1.75901 -5.56891,-2.48722 -8.18629,-1.77351 -1.29317,0.35263 -3.39496,2.48047 -3.99056,4.04004 -0.43429,1.13717 -0.43271,1.16452 0.11185,1.92928 0.49398,0.69373 0.53386,0.96035 0.37712,2.52112 -0.10771,1.07247 -0.0781,1.86366 0.0767,2.05222 0.13859,0.16878 0.29089,0.58812 0.33844,0.93187 0.13665,0.98787 1.32502,0.95251 3.67695,-0.10942 1.08484,-0.48981 2.26349,-0.89058 2.61921,-0.89058 0.35573,0 1.18532,-0.21122 1.84354,-0.46938 1.17647,-0.46143 1.24221,-0.46084 3.87945,0.0346 3.06973,0.57669 3.20266,0.53531 3.96067,-1.23306 0.36069,-0.84146 0.62755,-1.09894 1.34395,-1.29675 1.69517,-0.46806 5.64319,0.41781 6.84337,1.53554 0.3272,0.30473 0.96779,1.29178 1.42353,2.19344 0.45574,0.90167 1.01334,1.7927 1.23911,1.98007 0.22577,0.18738 0.70611,0.8559 1.06743,1.48561 0.36132,0.62972 1.0129,1.54839 1.44795,2.04149 0.58021,0.65762 0.8374,1.24624 0.96507,2.20863 0.21861,1.64799 1.06146,3.93005 1.67992,4.54851 0.59617,0.59617 1.01366,0.59459 1.75611,-0.007 z"
       id="path1063"
       transform="scale(0.26458333)" />
    <path
       style="fill:#aa4400;stroke:#552200;stroke-width:0.25"
       d="m 220.21893,254.65184 c -0.45115,-0.37975 -1.17469,-1.21187 -1.60784,-1.84916 -0.83224,-1.22447 -2.603,-3.34378 -5.04138,-6.03373 -1.78527,-1.96946 -2.80186,-4.00744 -3.03172,-6.07777 -0.28604,-2.57627 -1.37212,-7.63649 -2.04362,-9.52154 -0.6935,-1.9468 -1.43029,-3.36148 -5.15646,-9.90069 -3.80174,-6.67184 -4.47375,-7.61211 -8.04045,-11.25 l -3.30895,-3.375 -3.26859,-6.75 c -1.79772,-3.7125 -3.4567,-7.36875 -3.68661,-8.125 -0.29186,-0.96002 -0.47829,-2.92171 -0.61772,-6.5 -0.15247,-3.91266 -0.38327,-6.17891 -0.97568,-9.5803 -0.95892,-5.50567 -2.16937,-14.51712 -2.50245,-18.63002 -0.13743,-1.6969 -0.38423,-3.24718 -0.54845,-3.44505 -0.54768,-0.65992 0.22076,-7.40233 1.1707,-10.27191 0.57817,-1.74652 2.72837,-5.99224 3.80175,-7.50682 1.72124,-2.42873 4.63798,-6.18306 5.72396,-7.36769 1.11608,-1.21745 1.32501,-1.69821 0.73801,-1.69821 -0.4571,0 -2.14141,1.84444 -4.4145,4.83419 -5.30232,6.97402 -6.9025,10.50511 -7.87661,17.38115 -0.3801,2.68312 -0.39474,3.31849 -0.11109,4.82182 0.40083,2.12428 0.18974,2.68178 -1.84935,4.88424 -1.60941,1.73836 -6.75474,5.49146 -8.99306,6.55971 -4.12847,1.97033 -8.33266,2.61697 -12.4146,1.90945 -2.95055,-0.51141 -4.42181,-1.17432 -6.5,-2.92873 -0.89375,-0.75451 -2.075,-1.67279 -2.625,-2.04063 -1.33092,-0.89012 -5.30012,-5.50922 -5.93662,-6.90865 -0.35767,-0.7864 -0.57622,-2.04221 -0.74568,-4.28464 -0.28988,-3.83605 -0.0656,-5.17503 1.33606,-7.97539 1.20787,-2.41326 2.53292,-3.65165 5.47124,-5.11343 2.51176,-1.24956 8.7197,-3.75273 8.88844,-3.58399 0.0647,0.0647 -0.32576,0.62134 -0.86767,1.23698 -1.08202,1.22924 -3.11543,2.41323 -5.32232,3.09903 -2.69353,0.83702 -4.54407,2.698 -5.70172,5.73389 -0.77795,2.04013 -0.99666,6.88729 -0.40293,8.92968 0.72077,2.47934 3.62162,6.15736 5.6876,7.21134 0.52365,0.26715 1.54643,0.60583 2.27285,0.75263 0.72641,0.14679 2.04089,0.49873 2.92105,0.78209 1.47034,0.47335 2.00832,0.50374 6.625,0.37431 6.9333,-0.19439 10.17273,-0.94867 12.02541,-2.80005 0.61022,-0.60979 1.66765,-2.29863 2.70993,-4.32807 1.18216,-2.30182 1.89503,-3.41274 2.31179,-3.60263 0.78481,-0.35758 0.77878,-0.9443 -0.01,-0.9443 -0.78731,0 -1.37104,0.79203 -3.50078,4.75 -0.92484,1.71875 -1.91503,3.37698 -2.20041,3.68495 -1.25773,1.35725 -5.54608,2.26983 -11.70068,2.48996 -3.79208,0.13563 -4.27422,0.1032 -5.75,-0.38665 -0.88597,-0.29407 -2.28586,-0.65773 -3.11086,-0.80813 -0.825,-0.1504 -1.86203,-0.49566 -2.30451,-0.76724 -1.30048,-0.79821 -3.7688,-3.67154 -4.59405,-5.34787 -0.76147,-1.54675 -0.76404,-1.56625 -0.68289,-5.17872 l 0.0814,-3.62612 1,-1.95835 c 1.11087,-2.17546 2.27255,-3.25218 4.29713,-3.98284 3.71945,-1.34234 5.44239,-2.48025 6.84739,-4.52235 0.93107,-1.35327 1.72902,-1.59339 5.30101,-1.59524 1.93092,-0.001 2.95919,0.11293 3.625,0.40165 0.51121,0.22167 1.54822,0.40864 2.30447,0.41549 1.2524,0.0113 1.70939,-0.16672 5.125,-1.99678 5.54661,-2.97185 5.67344,-3.05442 8.48966,-5.52746 3.05563,-2.68327 3.89305,-4.09736 4.4822,-7.56873 0.71398,-4.2069 2.18495,-6.03592 7.10385,-8.83295 1.67563,-0.95281 3.80658,-2.333 4.73544,-3.06709 2.3209,-1.83422 3.41043,-2.33783 4.40714,-2.0371 0.42994,0.12973 2.75046,0.33819 5.15671,0.46326 2.40625,0.12506 5.78125,0.30175 7.5,0.39264 2.33793,0.12364 3.82259,0.0611 5.89471,-0.2481 1.52334,-0.22736 2.94835,-0.34482 3.16668,-0.26104 0.21834,0.0838 0.65675,0.88816 0.97424,1.7875 0.75424,2.13647 1.89864,3.40166 5.45319,6.02877 3.34962,2.47565 5.46357,4.4323 7.58716,7.02261 l 1.51589,1.84906 -1.30089,1.15094 c -1.10944,0.98155 -1.29935,1.27971 -1.29044,2.02593 0.016,1.33832 0.74624,2.67167 2.73846,5 2.01768,2.35809 2.88397,3.97097 3.27817,6.10342 0.14494,0.78402 0.57753,1.89712 0.96133,2.47354 1.65653,2.48795 2.05205,3.1742 3.12556,5.42304 0.72395,1.51656 1.32627,3.27862 1.66643,4.875 0.29298,1.375 0.69777,2.81983 0.89954,3.21074 0.20176,0.3909 0.33042,0.73543 0.28591,0.76561 -5.05135,3.42539 -6.94136,5.2966 -8.35676,8.27365 -0.69063,1.45264 -0.79927,2.875 -0.21957,2.875 0.48322,0 2.74687,-1.16091 3.80789,-1.95288 l 0.8125,-0.60646 6e-5,0.96717 c 3e-5,0.53195 -0.2734,1.92342 -0.60763,3.09217 -0.35471,1.24035 -0.72206,3.478 -0.88241,5.375 -0.32569,3.85294 -0.92466,6.72788 -2.12741,10.21118 -1.01511,2.93987 -1.10113,4.31967 -0.4658,7.47125 0.36813,1.82607 0.37995,2.4448 0.10116,5.29714 -0.17633,1.80415 -0.54549,3.90064 -0.83639,4.75 -0.43061,1.25725 -0.52289,2.1479 -0.53315,5.14543 l -0.0124,3.625 1.18143,3.47817 c 1.24971,3.67916 2.69155,6.59519 5.37366,10.86789 l 1.63818,2.60968 -0.40874,2.77213 c -0.22481,1.52467 -0.47609,4.06588 -0.55841,5.64713 -0.2007,3.85511 -0.87114,6.59445 -2.37033,9.68488 -0.86284,1.77866 -1.24182,2.86865 -1.24182,3.57165 v 1.01177 l -1.54092,-1.64726 c -0.84751,-0.90598 -1.72193,-1.74412 -1.94317,-1.86252 -0.59429,-0.31806 -13.82268,0.37675 -15.76591,0.82808 -0.89375,0.20758 -2.39461,0.45597 -3.33525,0.55197 -1.24797,0.12737 -1.88993,0.3291 -2.375,0.74631 -0.61046,0.52506 -0.66475,0.72588 -0.66475,2.45887 0,1.35972 0.10683,1.99411 0.38226,2.27 0.75534,0.75662 5.18881,1.22042 11.86774,1.24151 7.15473,0.0226 7.04892,0.0467 10.34796,-2.35286 0.99113,-0.72089 1.85247,-1.2603 1.91408,-1.1987 0.22174,0.22175 -1.4529,2.45919 -2.63831,3.52497 -2.21461,1.99113 -6.16287,2.84035 -14.37373,3.09163 l -5,0.15302 z m 3.07029,-10.5993 c 1.17119,-0.5334 2.79075,-2.23586 3.02863,-3.18365 0.21597,-0.86049 -0.0541,-4.69293 -0.4203,-5.96321 -0.36576,-1.2689 -1.61158,-2.51017 -2.87006,-2.85956 -1.51158,-0.41967 -4.64291,-0.35358 -5.30764,0.11201 -0.30559,0.21405 -0.55563,0.54596 -0.55563,0.73758 0,0.19162 -0.17419,0.44588 -0.38708,0.56502 -0.43981,0.24613 -0.447,0.35529 -0.2261,3.43322 l 0.16148,2.25 -1.01349,-1.125 -1.01349,-1.125 -0.0106,-3.50079 c -0.0107,-3.51005 0.47609,-6.32955 1.25476,-7.26779 0.36179,-0.43593 0.9204,-0.16435 2.48458,1.20792 1.7164,1.50581 2.51249,1.80744 7.375,2.79428 6.78736,1.37749 11.68183,1.47143 14.19869,0.27252 0.44072,-0.20994 1.58071,-1.05658 2.53331,-1.88142 1.58423,-1.37177 2.64299,-1.87468 2.64299,-1.25542 0,0.13436 -0.28125,0.9915 -0.625,1.90476 -0.34375,0.91326 -0.625,1.86935 -0.625,2.12465 0,0.25529 -0.40932,0.83252 -0.90959,1.28273 -0.50028,0.45021 -1.20634,1.44071 -1.56902,2.20112 -0.91244,1.91304 -2.16705,5.68012 -1.96052,5.88665 0.0937,0.0937 1.19471,-0.31648 2.44672,-0.91147 1.91715,-0.91108 2.35207,-1.03453 2.75601,-0.78227 0.66082,0.41269 0.66014,0.41311 1.00059,-0.61846 0.51049,-1.5468 -0.0153,-6.58201 -0.68728,-6.58201 -0.40828,0 -0.38385,-0.11896 0.62294,-3.03363 0.55928,-1.6191 0.60845,-1.9699 0.32411,-2.3125 -0.68857,-0.82967 -2.02762,-0.32693 -4.27396,1.60465 -0.75625,0.65029 -1.7265,1.35998 -2.15611,1.5771 -1.9244,0.97256 -6.2732,1.09279 -10.09389,0.27906 -0.89375,-0.19035 -2.69375,-0.52346 -4,-0.74023 -3.64616,-0.60509 -4.63524,-0.97637 -6.20728,-2.33004 -1.66679,-1.43527 -2.29137,-1.79441 -3.12067,-1.79441 -0.80928,0 -1.00201,0.28826 -1.65697,2.4783 -1.01093,3.38032 -1.17672,7.94401 -0.34824,9.5859 0.19127,0.37906 0.87885,1.42439 1.52796,2.32295 0.87543,1.21187 1.29876,1.60337 1.63931,1.51606 0.35667,-0.0914 0.58724,0.17121 1.0333,1.17705 0.56673,1.27792 1.15043,1.97317 1.88259,2.24238 0.76532,0.28141 2.15461,0.1529 3.125,-0.28905 z m -7.625,-21.35931 c 0,-0.31665 -0.43179,-1.46977 -0.95954,-2.5625 -0.92738,-1.92017 -1.44625,-3.49525 -3.16633,-9.61178 -0.44468,-1.58125 -1.37738,-4.73681 -2.07265,-7.01235 -1.11863,-3.66111 -1.35485,-4.85452 -2.0521,-10.36759 -0.43338,-3.42662 -0.8303,-6.29874 -0.88205,-6.38248 -0.21191,-0.34288 -0.60289,-3.58746 -0.85709,-7.11258 -0.58796,-8.15383 -1.42505,-13.88715 -2.50034,-17.125 -0.69172,-2.08286 -2.27561,-5.5 -2.54932,-5.5 -0.37562,0 -0.22811,0.6139 0.80844,3.36456 0.56045,1.48727 1.23885,3.56055 1.50754,4.60729 0.67761,2.63971 1.40197,8.53609 1.72335,14.02815 0.14885,2.54375 0.43691,5.3 0.64013,6.125 0.37615,1.52705 0.42936,1.88908 1.34113,9.125 0.59913,4.75481 0.85477,5.91459 2.50729,11.375 0.6658,2.2 1.49997,5.0125 1.85373,6.25 1.65549,5.79122 2.21827,7.51597 2.76389,8.47053 0.32364,0.56621 0.72215,1.45135 0.88557,1.96697 0.32812,1.03529 1.00835,1.27935 1.00835,0.36178 z m 25.249,-34.98678 c -0.002,-1.79786 -0.79349,-5.50014 -1.88343,-8.8125 -1.7601,-5.349 -2.89798,-9.98405 -3.04857,-12.41816 -0.13262,-2.14347 -0.12347,-2.18758 0.80355,-3.875 1.01662,-1.8505 2.22752,-3.5098 2.95022,-4.04271 0.25052,-0.18473 1.22457,-0.72063 2.16456,-1.19088 0.93999,-0.47026 1.85011,-1.02496 2.0225,-1.23267 0.68087,-0.8204 -0.12479,-0.65348 -2.39527,0.49625 -2.56611,1.29943 -3.70675,2.36329 -5.22458,4.8729 -1.12299,1.85678 -1.47728,3.28387 -1.27533,5.13702 0.29157,2.67551 1.38983,7.15913 2.76308,11.28025 0.73804,2.21485 1.57976,5.3086 1.8705,6.875 0.29073,1.5664 0.58685,3.04488 0.65804,3.2855 0.21585,0.72963 0.5958,0.49006 0.59473,-0.375 z m -45.36704,-22.1264 c 0.46072,-0.25784 0.41117,-0.35159 -0.75698,-1.43231 -1.80797,-1.67263 -4.56065,-3.73823 -5.97471,-4.48339 -1.45537,-0.76693 -4.11049,-0.92078 -4.65101,-0.2695 -0.3454,0.41618 -0.46631,0.23581 2.55757,3.81531 2.23838,2.64966 2.67363,2.85425 5.82515,2.73814 1.37884,-0.0508 2.72883,-0.21651 2.99998,-0.36825 z m 35.8499,-25.96981 c 0.46998,-0.59748 0.51814,-0.99503 0.51814,-4.27652 0,-3.60486 -0.003,-3.62108 -0.71733,-4.52879 -1.52223,-1.93314 -3.12395,-5.75412 -3.67489,-8.76665 -0.73256,-4.00563 -0.69827,-3.93671 -2.17555,-4.37286 -0.71897,-0.21228 -1.81348,-0.72534 -2.43223,-1.14014 -1.23494,-0.82789 -1.72458,-0.89583 -3.40568,-0.47252 -1.4838,0.37362 -1.95847,1.08357 -1.7324,2.59108 0.158,1.05365 0.12674,1.1418 -0.48782,1.37546 -0.71845,0.27315 -3.17276,0.33032 -4.05276,0.0944 -0.30452,-0.0816 -0.90687,-0.69885 -1.33856,-1.37158 -0.82182,-1.28069 -1.21435,-1.47282 -1.73278,-0.84816 -0.43333,0.52214 -0.8364,0.47095 -1.88266,-0.23905 -1.59274,-1.08087 -3.46786,-1.63595 -5.52643,-1.63595 -2.3532,0 -3.20368,0.38122 -4.83663,2.16792 -1.55617,1.7027 -2.02761,3.05186 -1.42367,4.07425 0.29178,0.49395 0.41939,1.27849 0.41939,2.57838 0,1.1026 0.15508,2.23954 0.37836,2.77392 0.32805,0.78514 0.48967,0.90553 1.21561,0.90553 0.4605,0 1.64595,-0.33347 2.63433,-0.74105 0.98839,-0.40758 2.21324,-0.81774 2.72189,-0.91147 0.50865,-0.0937 1.37481,-0.32864 1.92481,-0.522 0.87625,-0.30807 1.29843,-0.2994 3.41151,0.0701 3.09748,0.54163 3.54277,0.42471 4.33474,-1.13818 0.52542,-1.03685 0.76577,-1.26044 1.50373,-1.39889 1.68202,-0.31554 5.12612,0.50398 6.31218,1.50198 0.39098,0.32898 1.03253,1.19809 1.42568,1.93133 0.39315,0.73325 1.20031,2.00818 1.7937,2.83318 0.59338,0.825 1.44073,2.00135 1.883,2.61411 0.5176,0.71714 1.00811,1.89952 1.37664,3.31837 0.31488,1.21235 0.70202,2.45475 0.86029,2.76089 0.81317,1.57286 1.84441,1.86748 2.70539,0.77292 z"
       id="path1065"
       transform="scale(0.26458333)" />
    <path
       style="fill:#803300;stroke:#552200;stroke-width:0.25"
       d="m 265.03922,158.01656 c -0.55,-0.10936 -2.125,-0.38493 -3.5,-0.61237 -4.50528,-0.74522 -6.38362,-1.13213 -7.24647,-1.49265 -2.50741,-1.04767 -4.46818,-3.38585 -4.67897,-5.5796 l -0.12369,-1.28733 0.89957,-0.0753 c 0.49476,-0.0414 1.23706,0.0541 1.64956,0.21241 0.4125,0.15825 2.1,0.58907 3.75,0.95738 1.65,0.36831 3.61875,0.8744 4.375,1.12465 2.14717,0.71052 7.65215,1.06532 14.75,0.95066 6.99517,-0.11301 8.32292,-0.33681 9.76311,-1.64568 1.0118,-0.91954 1.37634,-2.89728 0.99195,-5.38161 -0.49944,-3.22786 -2.08144,-5.73166 -4.48415,-7.09694 -0.63025,-0.35813 -1.53966,-1.01227 -2.02091,-1.45365 -0.48125,-0.44137 -2.3239,-1.56458 -4.09477,-2.496 -1.77088,-0.93143 -3.57088,-1.99622 -4,-2.36622 -0.42912,-0.36999 -1.22822,-0.97255 -1.77576,-1.33902 -0.54754,-0.36647 -0.88504,-0.66595 -0.75,-0.66551 0.31284,0.001 4.28136,0.65897 6.24553,1.03546 1.57278,0.30147 3.72719,1.53858 6.33291,3.6365 0.7331,0.59023 1.71747,1.25564 2.1875,1.47868 0.47003,0.22304 0.85459,0.49604 0.85459,0.60667 0,0.11062 0.75938,0.44985 1.6875,0.75383 1.95353,0.63984 2.42915,0.99752 3.11604,2.3434 1.63673,3.20697 2.05317,6.3804 1.20416,9.17623 -0.30789,1.01389 -0.73068,2.18093 -0.93954,2.59343 -0.67206,1.32734 -3.85815,5.62882 -4.37355,5.90465 -1.26769,0.67845 -4.90029,0.96815 -11.81961,0.94263 -3.85,-0.0142 -7.45,-0.1153 -8,-0.22467 z"
       id="path1067"
       transform="scale(0.26458333)" />
    <path
       style="fill:#803300;stroke:#552200;stroke-width:0.25"
       d="m 244.19264,134.61072 c -0.44603,-0.31241 -0.62736,-0.33618 -0.77256,-0.10124 -0.12466,0.2017 -0.24964,0.0683 -0.36441,-0.38902 -0.222,-0.88451 -0.85688,-1.80493 -2.69028,-3.90024 -2.54677,-2.9106 -3.38691,-5.06668 -2.21803,-5.69224 0.40019,-0.21418 0.57176,-0.13412 0.99931,0.46632 0.28389,0.39869 1.40695,1.37276 2.49569,2.1646 3.37117,2.45185 6.73142,3.21563 13.45273,3.05778 2.36823,-0.0556 4.28073,-0.0778 4.25,-0.0494 -0.15209,0.14087 -8.942,2.56858 -9.82491,2.71357 -0.56047,0.092 -1.30214,0.35764 -1.64814,0.59022 -2.63891,1.77381 -2.73256,1.80282 -3.6794,1.13963 z"
       id="path1069"
       transform="scale(0.26458333)" />
    <path
       style="fill:#803300;stroke:#552200;stroke-width:0.25"
       d=""
       id="path1071"
       transform="scale(0.26458333)" />
    <path
       style="fill:#803300;stroke:#552200;stroke-width:0.25"
       d=""
       id="path1073"
       transform="scale(0.26458333)" />
    <path
       style="fill:#552200;stroke:#552200;stroke-width:0.25"
       d="m 262.72672,129.33989 c 0.37813,-0.0573 0.99688,-0.0573 1.375,0 0.37813,0.0573 0.0688,0.10415 -0.6875,0.10415 -0.75625,0 -1.06562,-0.0469 -0.6875,-0.10415 z"
       id="path1075"
       transform="scale(0.26458333)" />
    <path
       style="fill:#280b0b;stroke:#552200;stroke-width:0.25"
       d="m 267.39154,151.66294 c -0.0624,-0.0624 -1.4278,-0.22766 -3.03417,-0.36717 -1.63319,-0.14184 -3.83479,-0.52346 -4.9944,-0.86572 -2.39781,-0.70772 -7.12023,-1.9087 -7.76125,-1.97381 -0.24062,-0.0244 -0.4375,-0.18907 -0.4375,-0.36586 0,-0.17678 -0.25418,-0.32143 -0.56486,-0.32143 -0.31067,0 -0.7081,-0.22936 -0.88318,-0.5097 -0.17507,-0.28033 -0.42713,-0.44244 -0.56013,-0.36024 -0.133,0.0822 -0.24183,-0.0416 -0.24183,-0.27515 0,-0.23353 -0.31884,-0.9433 -0.70853,-1.57726 -0.3897,-0.63395 -1.02114,-1.84982 -1.40321,-2.70193 -0.38207,-0.8521 -0.90698,-1.74141 -1.16646,-1.97625 -0.25949,-0.23483 -0.4718,-0.60024 -0.4718,-0.81203 0,-0.21179 -0.28521,-0.68277 -0.6338,-1.04662 -0.42148,-0.43994 -0.70615,-1.11449 -0.84978,-2.01368 -0.2335,-1.46176 -0.17221,-1.73293 0.28775,-1.27297 0.57938,0.57938 1.97973,0.33338 3.30737,-0.581 0.91529,-0.63039 1.98087,-1.04821 3.79114,-1.48654 1.38491,-0.33534 3.91399,-1.02687 5.62017,-1.53672 2.96274,-0.88535 3.29127,-0.93046 7.31013,-1.00367 4.15088,-0.0756 4.2221,-0.0679 5.25,0.56871 0.57311,0.35495 1.32327,0.90352 1.66702,1.21905 0.34375,0.31552 2.03125,1.33458 3.75,2.26457 1.71875,0.93 3.54181,2.05965 4.05124,2.51034 0.50943,0.45069 1.36407,1.0428 1.8992,1.31581 1.6446,0.83901 3.46327,3.06095 4.04379,4.94045 0.55081,1.78332 0.65317,4.16905 0.24233,5.6484 -0.28214,1.01595 -1.19611,1.64543 -3.11296,2.14398 -0.9859,0.25643 -14.17641,0.65631 -14.39628,0.43644 z"
       id="path1077"
       transform="scale(0.26458333)" />
    <path
       style="fill:#552200;stroke:#552200;stroke-width:0.25"
       d="m 226.35969,251.38109 c -0.0758,-0.0758 -1.13519,-0.18156 -2.35416,-0.23496 -2.6486,-0.11604 -4.3233,-0.44666 -4.61792,-0.91167 -0.32206,-0.50833 -0.26061,-2.50237 0.099,-3.21318 0.28537,-0.56402 0.54992,-0.65141 2.80882,-0.92776 1.37157,-0.1678 3.16877,-0.4923 3.99377,-0.7211 1.1745,-0.32574 2.72066,-0.42279 7.125,-0.44724 3.95464,-0.022 5.78508,-0.12291 6.16405,-0.33997 0.49238,-0.28202 0.66012,-0.17797 1.93742,1.20166 l 1.39838,1.51041 -0.81242,0.74342 c -1.16613,1.06707 -3.91774,2.85442 -4.91223,3.19081 -0.85842,0.29036 -10.55501,0.42429 -10.82973,0.14958 z"
       id="path1079"
       transform="scale(0.26458333)" />
    <path
       style="fill:#552200;stroke:#552200;stroke-width:0.25"
       d="m 219.8676,243.28594 c -0.33773,-0.26566 -0.75827,-0.96878 -0.93453,-1.5625 -0.17627,-0.59372 -0.42261,-1.20501 -0.54743,-1.35844 -0.44184,-0.54308 -0.63734,-7.28012 -0.22327,-7.69419 0.12935,-0.12935 1.06855,-0.23519 2.0871,-0.23519 1.45543,0 2.11288,0.12935 3.07083,0.60417 1.72405,0.85453 2.17544,1.86881 2.30242,5.17363 0.093,2.41954 0.0616,2.62564 -0.53839,3.53221 -1.16552,1.76122 -3.90687,2.57064 -5.21673,1.54031 z"
       id="path1081"
       transform="scale(0.26458333)" />
    <path
       style="fill:#aa4400;stroke:#552200;stroke-width:0.25;fill-opacity:1"
       d="m 240.41775,239.45645 c 0.0198,-0.35129 1.77707,-4.82196 2.07262,-5.27302 0.50262,-0.76709 2.10595,-1.72661 2.31632,-1.38621 0.0861,0.13923 0.21877,1.38408 0.29494,2.76633 0.13568,2.46231 0.12793,2.50984 -0.38277,2.34774 -0.34873,-0.11068 -1.10392,0.12799 -2.2817,0.72111 -1.63543,0.82359 -2.02843,0.98396 -2.01941,0.82405 z"
       id="path1083"
       transform="scale(0.26458333)" />
    <path
       style="fill:#aa4400;fill-opacity:1;stroke:#552200;stroke-width:0.0625"
       d="m 259.36532,130.13034 c -0.0575,-0.0921 -0.16672,-0.11809 -0.55702,-0.13278 l -0.4855,-0.0183 0.52913,-0.0731 c 0.29102,-0.0402 0.57227,-0.0504 0.625,-0.0226 0.12346,0.065 0.60915,-0.0204 1.47087,-0.25877 0.88339,-0.24435 1.36113,-0.29334 1.5006,-0.15387 0.15173,0.15173 1.78706,0.15123 1.91305,-5.8e-4 0.0756,-0.091 0.20903,-0.098 1.17953,-0.0617 2.58714,0.0968 2.74538,0.12018 2.85987,0.42349 0.0657,0.17409 0.0621,0.18137 -0.0668,0.13436 -0.22012,-0.0803 -1.8034,-0.0388 -2.91751,0.0764 -0.69674,0.072 -1.38603,0.0993 -2.125,0.084 -1.92971,-0.0399 -3.39944,-0.0195 -3.63048,0.0503 -0.19413,0.0586 -0.23384,0.0523 -0.29575,-0.0468 z"
       id="path1085"
       transform="scale(0.26458333)" />
    <path
       style="fill:#803300;stroke:#000000;stroke-width:0.264583px;stroke-linecap:butt;stroke-linejoin:miter;stroke-opacity:1"
       d="m 47.834875,37.835429 c -0.168931,-0.799917 -0.802087,-1.106188 -1.492152,-1.357106 -0.180729,-0.06572 -0.391197,-0.06304 -0.566949,-0.133471 -0.316897,-0.12699 -0.637771,-0.268134 -0.96156,-0.365329 -0.304577,-0.09143 -0.143838,0.01849 -0.39779,-0.06615 -0.359331,-0.119779 -0.721178,-0.314359 -1.059569,-0.463949 -0.535742,-0.236832 -1.188657,-0.232125 -1.772711,-0.232125"
       id="path65" />
    <path
       style="fill:#803300;stroke:#552200;stroke-width:0.25"
       d="m 264.5352,151.18388 c -1.6208,-0.1947 -3.9833,-0.63216 -5.25,-0.97212 -1.26671,-0.33997 -3.5406,-0.91825 -5.0531,-1.28506 -1.5125,-0.36682 -2.83997,-0.81558 -2.94992,-0.99726 -0.10996,-0.18168 -0.39121,-0.33406 -0.625,-0.33864 -0.79114,-0.0155 -1.44556,-0.85792 -2.90659,-3.74168 -0.80112,-1.58125 -1.56566,-3.01201 -1.69897,-3.17946 -0.8141,-1.02255 -2.01125,-3.34687 -2.17484,-4.22255 l -0.19202,-1.02782 1.05599,0.11903 c 0.87574,0.0987 1.32863,-0.0334 2.65314,-0.77415 1.02862,-0.57524 2.97491,-1.26465 5.46768,-1.93674 2.12879,-0.57397 4.65042,-1.25389 5.60362,-1.51094 1.36717,-0.36869 2.615,-0.46737 5.91,-0.46737 h 4.17691 l 1.48292,1.09166 c 0.8156,0.60042 2.71236,1.79959 4.215,2.66484 3.74913,2.1588 7.91482,5.06893 8.66353,6.05231 1.58401,2.0805 2.35922,5.03512 1.96526,7.49039 -0.39781,2.47929 -1.40111,2.8836 -7.94409,3.20132 -6.30576,0.30621 -8.74161,0.27364 -12.39952,-0.16576 z"
       id="path67"
       transform="scale(0.26458333)" />
    <path
       style="fill:#552200;stroke:#552200;stroke-width:0.25"
       d="m 265.4821,151.17422 c -3.31189,-0.30087 -12.05033,-2.42032 -14.22964,-3.4513 -0.72452,-0.34275 -1.48957,-0.8202 -1.7001,-1.06099 -0.74042,-0.84683 -5.69526,-10.168 -5.69526,-10.71406 0,-0.24545 0.32555,-0.34875 1.09905,-0.34875 0.73295,0 1.71146,-0.28824 2.9375,-0.86531 1.78747,-0.84131 4.49864,-1.6921 9.55332,-2.99792 2.17864,-0.56283 2.96706,-0.63677 6.78948,-0.63677 h 4.32462 l 2.37449,1.5625 c 1.30597,0.85937 3.56125,2.28499 5.01171,3.16804 4.69731,2.85972 6.68682,4.47883 7.57,6.16066 1.01192,1.92699 1.43998,3.81626 1.25992,5.56086 -0.27308,2.6459 -1.11844,3.13823 -6.08037,3.54115 -2.94397,0.23906 -10.93931,0.28861 -13.21472,0.0819 z"
       id="path69"
       transform="scale(0.26458333)" />
    <path
       style="fill:#552200;stroke:#552200;stroke-width:0.25"
       d="m 154.4821,160.95637 c -4.9031,-1.32144 -4.69757,-1.22015 -6.59216,-3.24886 -0.96434,-1.0326 -2.09748,-2.56614 -2.51809,-3.40785 -0.74327,-1.48741 -0.76475,-1.62832 -0.76475,-5.01641 v -3.48601 l 0.9375,-1.78472 c 1.30276,-2.48007 2.35026,-3.41315 4.96761,-4.42504 2.86044,-1.10587 4.84445,-2.41589 5.99713,-3.95986 1.69784,-2.27419 0.91871,-2.43073 12.87276,2.58629 5.79415,2.43175 10.67471,4.55205 10.84569,4.71177 0.21863,0.20423 0.2445,0.51412 0.0872,1.04442 -0.20921,0.70533 -1.20789,6.18733 -1.20789,6.63046 0,0.11096 -0.2248,0.14296 -0.49956,0.0711 -0.87415,-0.22859 -1.58754,0.53597 -3.2245,3.45578 -2.41308,4.30417 -3.02638,5.20906 -3.80258,5.61045 -1.27426,0.65894 -4.77803,1.34229 -8.22336,1.60382 -4.81845,0.36575 -6.33189,0.30004 -8.875,-0.38535 z"
       id="path71"
       transform="scale(0.26458333)" />
    <path
       style="fill:#803300;stroke:#552200;stroke-width:0.25"
       d="m 173.2321,139.74833 c -8.40317,-3.62812 -11.93134,-5.04826 -13.59882,-5.4737 -1.74715,-0.44577 -1.1464,-0.6561 1.15563,-0.40459 1.26174,0.13785 2.48061,0.5008 4.04039,1.20313 1.22847,0.55315 2.89041,1.16812 3.69319,1.36659 1.26846,0.3136 3.27054,0.95537 7.23103,2.31793 1.74022,0.5987 3.2912,1.73907 3.847,2.82853 0.28421,0.55709 0.43008,1.00292 0.32416,0.99071 -0.10592,-0.0122 -3.11758,-1.28507 -6.69258,-2.8286 z"
       id="path73"
       transform="scale(0.26458333)" />
    <path
       style="fill:#803300;stroke:#552200;stroke-width:0.25"
       d="m 157.1908,167.08485 c -3.63335,-0.36683 -5.10255,-1.11952 -10.42778,-5.34228 -1.35512,-1.07456 -4.87668,-5.31283 -5.42829,-6.53306 -0.65934,-1.45853 -1.10818,-6.42253 -0.75964,-8.40123 0.54105,-3.07157 2.37194,-6.05647 4.63726,-7.56011 1.35148,-0.89706 8.08561,-3.93644 9.51847,-4.29607 0.6232,-0.15641 0.65748,-0.12842 0.40973,0.33451 -0.41373,0.77306 -2.7741,2.22979 -4.97443,3.07001 -2.48475,0.94884 -3.78744,1.90112 -4.87314,3.56233 -1.52999,2.34099 -1.76204,3.21299 -1.87751,7.05517 -0.11726,3.90175 0.036,4.63195 1.47657,7.03746 1.0394,1.73558 3.30978,4.08825 4.48207,4.64454 0.48312,0.22925 2.16756,0.7718 3.7432,1.20565 l 2.86479,0.78881 5.375,-0.13949 c 7.64685,-0.19844 10.38001,-0.89904 12.31179,-3.15588 0.47732,-0.55765 1.57997,-2.30524 2.45034,-3.88354 0.87036,-1.5783 1.88365,-3.15819 2.25177,-3.51086 l 0.6693,-0.64123 0.17555,2.24403 c 0.14411,1.84218 0.10159,2.38703 -0.23741,3.04258 -0.61066,1.18089 -3.21518,3.63937 -5.88994,5.55968 -5.49178,3.94275 -10.43073,5.47093 -15.8977,4.91898 z"
       id="path75"
       transform="scale(0.26458333)" />
    <path
       style="fill:#552200;stroke:#552200;stroke-width:0.25"
       d="m 171.64364,138.94894 c -4.31115,-1.84903 -8.92365,-3.75483 -10.25,-4.23511 l -2.41154,-0.87323 1.5,0.15166 c 0.825,0.0834 2.5125,0.54368 3.75,1.02282 1.2375,0.47915 3.88125,1.37794 5.875,1.99732 6.58345,2.04521 8.34969,2.9106 9.32663,4.56972 0.2484,0.42185 0.3609,0.75838 0.25,0.74785 -0.11089,-0.0105 -3.72894,-1.532 -8.04009,-3.38103 z"
       id="path77"
       transform="scale(0.26458333)" />
    <path
       style="fill:#552200;fill-opacity:1;stroke:#552200;stroke-width:0.125"
       d="m 240.8491,238.58941 c 0.77255,-2.08513 1.75728,-4.35647 2.00135,-4.61627 0.36959,-0.39341 1.38819,-1.03998 1.63837,-1.03998 0.24726,0 0.32611,0.479 0.4424,2.6875 0.10185,1.93425 0.0754,2.23435 -0.18776,2.13335 -0.30536,-0.11718 -1.12292,0.15374 -2.6512,0.87855 -0.78349,0.37158 -1.44364,0.6756 -1.467,0.6756 -0.0233,0 0.0774,-0.32343 0.22384,-0.71875 z"
       id="path72"
       transform="scale(0.26458333)" />
    <path
       style="fill:#ffffff;stroke:#552200;stroke-width:0.125"
       d="m 191.02307,165.3135 c 0.47072,-0.19067 0.72643,-1.00969 0.64625,-2.06986 l -0.0713,-0.9431 0.6469,0.53054 c 0.3558,0.2918 1.09222,0.92632 1.63651,1.41006 l 0.98961,0.87952 -1.05211,0.14683 c -1.23244,0.17199 -3.18621,0.20415 -2.79583,0.046 z"
       id="path78"
       transform="scale(0.26458333)" />
    <path
       style="fill:#ffffff;stroke:#552200;stroke-width:0.125"
       d="m 185.29011,160.489 c -0.60618,-0.5001 -0.69268,-0.61855 -0.52163,-0.71428 0.30735,-0.172 2.45468,-0.1691 2.74831,0.004 0.22043,0.12972 0.18915,0.14758 -0.26439,0.15093 -0.6178,0.005 -1.14004,0.36874 -1.19632,0.83423 -0.0393,0.32473 -0.0397,0.32456 -0.76597,-0.27459 z"
       id="path80"
       transform="scale(0.26458333)" />
    <path
       style="fill:#ffffff;stroke:#552200;stroke-width:0.125"
       d="m 241.45429,163.83085 c 0,-0.30074 0.45838,-1.56959 0.84353,-2.33498 1.01622,-2.01954 2.3303,-3.52438 4.43345,-5.07706 1.36019,-1.00418 1.73325,-1.16841 1.24546,-0.54829 -0.14463,0.18387 -0.29277,0.61935 -0.34042,1.00073 -0.0833,0.66683 -0.0889,0.67428 -0.45111,0.60184 -0.31765,-0.0635 -0.44324,0.006 -0.93811,0.52296 -1.03621,1.08146 -1.85073,3.34209 -1.32197,3.66903 0.23807,0.14721 -0.72698,0.87126 -1.44578,1.08472 -0.32814,0.0975 -0.90004,0.40357 -1.2709,0.68027 -0.72427,0.54037 -0.75415,0.55625 -0.75415,0.40078 z"
       id="path83"
       transform="scale(0.26458333)" />
    <path
       style="fill:#ffffff;stroke:#552200;stroke-width:0.125"
       d="m 229.98139,139.48807 c -0.58442,-0.40934 -1.33868,-2.33213 -1.66378,-4.24135 -0.30632,-1.7989 -0.47228,-2.17975 -1.22728,-2.81638 -0.36128,-0.30464 -0.76071,-0.82942 -1.06454,-1.39863 -0.26747,-0.50108 -0.75047,-1.19441 -1.07335,-1.54073 -0.37362,-0.40075 -0.89808,-1.24136 -1.44259,-2.31219 -1.01557,-1.99723 -1.62855,-2.69153 -2.75045,-3.11534 -1.33078,-0.50272 -3.09203,-0.89161 -4.36761,-0.96439 -2.14375,-0.12232 -2.79373,0.22469 -3.56575,1.90367 -0.25736,0.55969 -0.55191,1.04985 -0.65456,1.08924 -0.2666,0.1023 -1.77928,-0.10156 -3.58216,-0.48277 -1.79329,-0.37919 -2.17724,-0.35651 -3.35344,0.19807 -0.60334,0.28447 -1.12931,0.42593 -1.84409,0.49599 -0.85166,0.0835 -1.24173,0.21129 -2.62959,0.86174 -0.89627,0.42006 -1.81019,0.79987 -2.03094,0.84402 -0.49292,0.0986 -0.77697,-0.10787 -0.77697,-0.56474 0,-0.18329 -0.1125,-0.55392 -0.25,-0.82362 -0.29411,-0.57688 -0.3034,-0.86698 -0.06,-1.875 0.31748,-1.31483 0.25667,-1.79684 -0.32437,-2.57117 -0.57628,-0.768 -0.59166,-1.07049 -0.10547,-2.07481 0.34267,-0.70788 2.25387,-2.72983 2.8843,-3.05145 0.74279,-0.37894 2.15825,-0.5258 3.56063,-0.36942 1.99313,0.22224 3.04825,0.56194 3.80778,1.22592 0.88749,0.77585 1.37222,1.02844 1.97332,1.02828 0.43294,-1.2e-4 0.66588,-0.0772 0.93636,-0.3098 0.19803,-0.17031 0.40625,-0.2811 0.46271,-0.24621 0.0565,0.0349 0.28268,0.42911 0.5027,0.87603 0.22002,0.44693 0.59447,0.98331 0.83212,1.19197 0.41508,0.36444 0.47461,0.37859 1.51225,0.35929 0.5941,-0.011 1.59212,0.0213 2.21783,0.0718 1.40682,0.11361 1.92512,0.0226 2.36277,-0.41471 0.32042,-0.32019 0.33666,-0.38964 0.26971,-1.15321 -0.0392,-0.44688 -0.10798,-1.0414 -0.15287,-1.32117 -0.0685,-0.42708 -0.0332,-0.565 0.22054,-0.85995 0.25845,-0.30047 0.42768,-0.36332 1.16968,-0.43439 0.47713,-0.0457 0.99327,-0.15247 1.14698,-0.23724 0.34386,-0.18966 0.85565,0.0463 1.94263,0.89546 0.68292,0.53352 1.57112,0.90844 2.76656,1.16779 l 0.48867,0.10602 0.22519,1.06049 c 0.36898,1.73765 0.57928,2.87684 0.7265,3.93549 0.11252,0.80911 0.30276,1.34598 0.99664,2.8125 0.47166,0.99687 0.8995,1.95312 0.95075,2.125 0.17338,0.58152 0.59176,1.30936 1.1856,2.0625 0.32524,0.4125 0.68019,0.9238 0.78878,1.13622 0.36468,0.71345 0.49104,1.96932 0.43637,4.33703 -0.0565,2.44794 -0.17493,2.99014 -0.73927,3.38541 -0.35665,0.24981 -0.364,0.2499 -0.70829,0.009 z"
       id="path85"
       transform="scale(0.26458333)" />
  </g>
</svg>
